<?xml version="1.0" encoding="UTF-8"?>
<svg id="b" data-name="Шар 2" xmlns="http://www.w3.org/2000/svg" viewBox="0 0 1586.718 1029.5696">
  <defs>
    <style>
      .d {
       fill: rgba(3, 3, 3, 0);
        stroke: #ff4fd8;
        stroke-miterlimit: 10;
        stroke-width: 1px;
      }
    </style>
  </defs>
  <g id="c" data-name="Шар 1">
    <g>
      <path class="d" d="M1539.9012,654.2829c-28.2799,44.3575-91.1196-35.3126-81.3555,15.553,5.9043,30.7692-4.5548,38.9353-29.1657,54.2221-23.5099,29.2135-27.9903,27.9724-64.5754,23.1195-27.4449,1.7828,11.4252,35.6888-24.0924,48.8096-89.6792,44.3877-102.1235-29.7494-133.0536,53.7575-7.4925,14.3082-7.1371,30.0378-6.2912,46.0682.7179,18.9469,1.3935,38.8306,2.0165,56.9908,1.2773,14.1313,2.0286,35.9061-16.4158,36.9731-32.8315-.1382-63.6226-22.759-85.0695-46.0011-22.7395-24.6944,4.6854-35.5332,15.5376-56.2438,16.0748-36.6711-40.0436-36.5052-53.4988-61.3753-7.4176-10.1321-11.2695-21.8171-12.3304-33.5632-.9794-9.6952,3.5135-19.1928,1.7537-28.7617-8.8463-16.9242,3.37-22.3046,6.5553-37.9451.8487-7.5224-3.3764-14.4296-6.9744-20.8843-15.0337-27.2736-30.6278-54.8128-41.1395-84.3167-2.1072-11.1307,10.118,1.1836,14.7807-1.836,5.4107-7.9375-4.0103-32.1828-12.6044-38.8404-7.4702-6.3579-16.5222,1.5495-24.5301.7565-7.8589-1.385-13.4001-9.2016-20.5348-12.3874-27.6023-9.7927.7187,31.5764,2.9613,41.6224,11.193,27.3846-18.7545,46.8325-20.7661,72.6686-2.495,20.3435-4.552,9.7929-13.2146-.1202-14.6251-14.0927-7.2226-15.2463-5.3733-30.315-3.7467-3.9068-11.7481-.6906-16.6505-3.0874-5.151-1.6935-7.3446-6.9972-12.0194-10.4111-11.3912-8.0378-23.0428,4.615-30.8949,12.1674-27.6566,20.8093-13.1607,30.1971-28.7345,43.9518-12.8373,5.9681-32.7489,19.2164-46.6528,19.269-5.9595-3.9311-2.3791-15.9728-8.0379-21.9945-14.8157-10.6117-32.1522,11.2142-47.4115,13.6011-18.7474,5.4636-37.0685-8.3116-54.5952-13.7587-9.0197-3.9306-4.4839,8.5729-12.0726,6.2692-14.2412-5.1076-27.6906-24.7554-31.0528-40.3912-10.6865-33.34,24.885-53.494,53.9159-57.0858,27.9178-5.5686,26.4484,22.9829,4.2445,29.76-20.6553,6.5846-14.7798,15.7158-12.2823,32.4986-.1112,8.3627,4.658,20.428,14.4331,14.0637,3.5447-1.4092,7.4568-7.238,11.3098-6.3367,4.9624,2.5069,11.2779,10.5064,17.1665,12.432,7.8117,2.4569,5.2235-6.405,2.7436-10.2732-25.0279-50.4321,6.2686-33.8918,36.7389-43.1851,11.1927-20.5965-16.4114-32.0754-27.9168-44.2457-6.4374-5.4619-10.7935-6.1277-17.3429-8.9039-9.4718-3.5803-23.1123-14.525-29.788-20.2287-4.0532-10.8959,39.1027,8.1193,24.9531-12.2808-13.2034-15.8693-48.9609-22.1354-69.8432-23.6527-13.6816.2551-26.033,7.0011-39.6559,7.9956-19.9128,2.0211-41.3263-6.3226-54.7274,3.9777-3.584,2.4572-7.0198,8.6561-2.9518,11.073,15.8607,4.4699,34.0811-7.643,50.2896-7.9226,10.4432-3.9877,86.1496,2.6319,45.1656,17.7271-20.2494,4.9232-39.4504,17.6643-60.3145,17.9664-14.3165,1.9604-36.4161-11.2215-46.566,1.2472-1.1897,4.897,2.5465,8.8543,1.891,14.3656-2.4854,9.7903-8.5948,19.2795-13.7829,27.9116-14.9906,23.7794-45.9008-5.3242-65.4256,11.1537-16.5364,12.182-20.8269,34.5074-35.8141,48.1835-17.7027,17.0518-36.8269,34.5913-59.5852,44.315-9.7607,3.1178-19.6449-.3244-29.8577.0504-31.5641,6.8891-42.3191-9.4561-30.6377-39.5636,14.6807-31.7744,40.7358-60.0302,74.2541-71.1593,20.1058-7.1438,42.3416-7.5409,63.0007-13.463,20.2983-7.201-9.402-18.2018-16.0013-24.4544-24.1957-19.1732-26.0596-57.7476-41.7719-83.5797-1.6499-6.9963,2.8907-11.7801,8.7272-7.9807,4.8014,3.0561,7.6667,9.1242,14.6702,13.6065,10.3538,5.795,23.6576,10.021,32.6393.893,5.383-4.899,17.1048.1162,17.7111,7.2263.167,4.0951-4.1871,6.9755-5.0815,10.7593,1.0084,13.4514,43.595,17.0494,53.9288,15.6664,9.4808-2.9146-20.1067-12.8304-20.2674-18.7617-2.0677-8.883,14.0623-11.4435,11.1537-20.9956-6.212-18.7309-75.2449-44.4828-72.8815-11.7048-1.2952,14.8959-38.3493-38.3084-60.3387-28.3727-31.1484,23.3117,10.8386,59.2457-48.084,89.4509-40.0129,32.8461-92.8842-41.0189-58.4081-48.7539,12.0696.7499,26.2299,10.5537,38.1418,6.1005,7.7935-5.7353,2.17-18.64,2.7039-26.9485-.3489-13.6788,2.3148-23.5322-4.1512-36.1437-10.1853-15.7698-20.1655-39.5254,8.5434-17.0366,8.5646,2.6517,29.1292,44.0191,31.2365,32.7319.7083-6.8943.7594-15.4833,10.0036-14.7582,6.7207.0638,3.2782-3.9382.2161-6.559-52.4196-34.61-6.8546-26.2628,9.2238-62.5303,11.9103-21.5628,35.6082-32.0144,58.2538-39.4374,11.4291-4.5998,23.8725-1.581,34.9272-1.9551,8.0378-1.8518,9.4839-12.2038,15.4519-17.0396,7.2406-6.907,20.5992-4.8535,30.4139-5.0783,11.1914-.8721,21.3018,2.6444,22.6003,15.5945,7.8432,54.6152-18.6894,57.2703-63.4191,44.4685-9.4143-7.1908-14.8879-22.7266-27.8044-9.8104-13.824,12.281-26.0372,25.3063-41.4996,35.3743-9.3093,5.3357-22.3624,5.5333-30.4718,13.0614-13.3732,13.4868,6.1198,30.0403,18.8359,35.453,11.9,5.6461,25.3854,4.7165,38.1048,2.6083,48.6064-9.8176,50.4784-4.3364,88.2048,24.5543,26.5637,23.8217,21.5983,50.0658,65.2599,57.1605,18.7881,3.508,39.6729.1913,57.4892-7.1773,16.1519-8.704,29.3769-22.5001,48.7486-23.9931,49.4775-2.9851,82.166-41.8851,98.5457-85.7083,6.0186-17.2994,3.4403-36.8927,12.1143-53.3274,22.6315-33.9965,30.1373-30.3939,17.359-73.399-6.4503-36.7861,12.0496-80.9837,53.6235-79.7464,85.5442-12.101,75.9849,55.3798,114.5716,50.8705,14.7528-2.0703,6.4153,15.1865,3.4364,22.7097-4.3355,13.6036-21.4381,20.701-25.3999,34.8313-6.5933,18.1298,12.6602,22.8744,22.0555,8.0247,26.8861-54.9686,62.1988-124.9252,129.8314-125.8259,31.6714-.499,8.2931-2.1902-2.7949-10.9342-7.5412-7.0226-5.2859-16.938-2.2697-28.4696,2.816-10.6972,8.4505-20.6067,17.2854-27.4384,11.5185-8.6595,27.1861-17.6112,40.5629-12.1248,8.5326,4.9773,24.4732,22.0137,26.8646,2.2534-.2976-19.4332-10.5717-43.0312-.5017-62.3197,11.2109-23.9298,44.2288-44.716,70.6149-35.1022,12.6084,5.3774,33.3753,37.8751,34.3327,50.6443-.6279,16.8335-18.8826,24.4365-30.4775,33.6336-13.3269,10.5197-26.3748,22.5327-41.8599,30.1994-12.1083,7.2418-26.273,2.9294-37.5553,10.8195-11.3424,10.0611-16.711,26.8584-25.9231,40.3671-14.5717,17.2297,3.241,40.6719,22.3025,43.4053,26.3705-.0508,21.6952-21.2088,16.6766-39.5202-6.4417-31.7617,14.3542-51.0769,45.3338-47.9062,17.4963,4.4874,11.5646,12.8864-.7275,18.5723-24.7572,16.6479,3.7854,30.7332,22.1074,26.1475,19.719-3.2409,59.3205-20.4572,67.8333-37.6737,2.5458-19.161-27.9102-19.4652-39.2481-26.3839-12.4951-6.1762,1.8134-11.8022,8.5151-13.4444,14.4226-3.9458,30.1298-3.9995,43.7714,2.1434,28.5056,12.1477,40.9434,52.9336,18.6651,76.4109-13.1906,15.6652-35.5782,6.1703-52.9247,8.0114-12.9473,1.7363-26.614,6.7478-39.2615,10.7306-23.5546,5.7645-29.702,28.4706-47.5591,39.7314-17.5994,6.3975-37.2277,25.9835-53.8352,6.4795-17.1047-16.3208-32.6141-14.9473-50.9594-3.3162-19.0699,3.1016-15.2677,7.4421-27.8453,20.2237-28.4767,20.8189,4.1744-19.805,6.7236-26.2286,4.1819-11.1063-28.5939,5.0802-31.1151,7.2805-6.1748,3.7852-.2219,7.035,1.1271,11.2542-1.0941,6.7263-9.1337,10.0262-14.6833,15.7684-14.2138,13.1612-29.7498,23.8475-47.1747,31.6834-20.2098,10.5763-15.585,14.6337-11.9786,32.9893-.2882,7.08-4.6769,16.1157-4.5783,24.6105-.7149,9.9961,1.6074,22.1789-4.7366,30.6023-7.693,9.1034-21.5244,7.8406-31.9378,11.938-26.7938,7.7344-29.9605,27.5827-46.6382,36.54-11.7729-12.6897,22.3777-32.7607,22.198-47.2086,1.5197-17.5501,4.8976-35.1836,7.6698-52.486.2651-4.423-.3802-8.4785-.3721-12.7869-.0671-5.8617,2.0581-9.9329-.0637-12.6413-3.2203-4.4346-11.741-2.6384-14.5645-6.5374,26.8474-18.7817,14.9955-9.374,13.6309-38.6022,1.1279-15.9345-17.4035-25.0649-30.4741-28.4205-7.3391-.3924,5.7889,9.4528,4.476,12.7108-5.6088,2.3396-14.8598-3.7734-21.639-1.6625-25.5252,7.0554-36.2866,35.923-25.5829,59.7594.4401,12.0243,52.3132,45.5158,13.8309,35.299-31.7961-13.0601-26.0206,2.6201-41.0615,24.7688-16.6191,21.3643-40.2979,38.1792-49.9993,63.9073-9.5022,15.0154,18.0944,68.2799,2.6037,78.6033-12.6297,7.0815-32.227-.1645-44.7132,7.0894-4.0369,6.1767,2.3977,11.8032,7.3657,19.0812,9.0805,12.9875,24.401,17.6245,37.8456,24.4724,14.6403,8.7941,23.7372,32.546,23.8829,49.6828-2.2095,10.5884-5.961,20.3869-9.4735,30.8608-3.7985,7.1958-6.0147,16.1617,5.3885,16.7827,5.4128,2.7398,44.0124-7.0961,28.6147-14.2518-5.0268-1.6666-13.0207-1.4411-16.8259-5.8617-7.3275-15.0193,11.0488-36.3404,24.9495-45.2843,26.9996-18.3234,60.8265-15.0105,91.0752-9.788,17.1709,2.6958,27.0302-16.2566,13.1466-26.8406-9.9986-8.3069-26.178-8.1182-35.6555-14.3046-4.8399-7.4609,19.5203-16.7429,25.3998-18.8111,10.4876-4.2395,24.569,3.0379,32.4715-5.9224,2.4875-11.254-11.975-20.7086-6.7297-34.0168,5.1255-24.2049,19.043-42.1623,29.0224-8.0814,2.331,14.9548-1.6993,30.3781,9.2998,42.8424,28.587,44.6117,74.1689,76.4596,129.3563,58.5252,24.4741-6.4824,34.6759-32.5663,39.743-54.8541,5.0252-24.7769-3.0071-50.8957-9.4425-74.3878-10.9392-30.135-47.3392-41.6085-62.8482-68.0549-7.7081-32.6829-13.5206-2.245-36.6116-10.2803-13.033-7.1116,17.8927-14.4617,22.2954-19.0372,10.712-6.5609,19.651-16.1974,28.3417-25.9036,5.0034-5.4356,9.4278-11.6155,15.082-16.3358,5.4657-5.3109,21.3647-11.4746,15.4682,1.9046-1.9527,5.9293-10.6423,13.5042-6.6466,20.0228,15.7977,8.0803,48.6952-33.8755,64.6987-42.8815,7.2893-5.4724,15.3517-21.3232,24.7423-18.5451,6.3724,4.5203,3.5736,14.7067,3.7635,21.2363,3.5138,18.3445,35.5238,11.8101,48.2569,6.5642,15.4249-6.5067,10.7234,3.6476,3.7237,12.0168-5.6263,9.1291-24.3713,21.1476-12.065,30.3719,26.521,9.2669,55.4483-17.3658,62.6106-41.7784,7.3389-26.6035-26.0941-49.708,7.5591-56.6547,16.4004-4.8125,16.0602-24.4511,20.6192-37.1005,6.5773-9.7642,15.819,5.5946,18.3494,11.8915,3.7338,8.3571,2.1078,19.3936,4.4705,26.8809,12.5542,23.5999,29.8864,12.5871,35.8237,48.2878,1.7647,4.3438,7.0628,3.9788,10.5506,5.8607,11.5935,15.6978-15.6319,36.1213-31.1181,40.7051-33.261,15.3282-81.9605-1.083-63.9013,15.0375,6.0931,5.5697,36.4046,23.1904,18.2151,29.036-32.1099,3.1515-63.8724-8.7725-91.664-24.7856-13.2159-6.9863-26.4957-22.0096-42.2028-12.7632-27.8203,12.5555-96.2845,49.7056-47.3242,80.0571,10.0936,3.5949,18.4898-6.7627,28.4369-8.0007,17.4639-.2003,5.5823,20.5066-.131,27.987-8.1198,12.2833,5.6361,13.8372,15.2809,9.4713,7.4341-3.1174,12.387-9.422,18.6517-14.1377,12.6641-9.866,28.6926-8.8119,44.3988-11.2991,12.8138-1.5178,25.3274-3.142,36.9137-8.6353,18.8633-10.2628,42.5013-21.7448,64.6937-16.5794,19.1956,5.1431,8.3382-21.5528,29.2065-25.1524,31.0195-9.7505,69.7574-1.4212,87.0614,30.3519,19.3923,26.5487,4.7499,39.1327-11.0846,61.1699-11.0053,31.93-48.9976,42.8993-79.2572,32.4977-31.4431-14.5767-10.5608-41.8582-65.2852-36.1105-19.7983,1.4647-39.3009-.224-58.5801,3.8233-33.0446,11.9278,33.4286,20.4117,40.5799,22.7507,21.1689,6.5762,36.0881,26.3052,57.4587,32.5424,13.672,5.0228,28.4623,7.2619,42.6361,10.2927,15.4693,2.4789,28.1504,11.4398,43.8547,9.197,7.7146-.1682,19.0319-4.4211,24.751.9432-4.7163,7.5418-29.0451,9.6585-34.0392,29.6338-4.4944,16.5914,13.8882,38.139,31.0496,37.3773,3.6577-1.9943-1.2446-11.3144.2116-16.8922,5.1872-13.2414,26.2714-13.4923,33.4584-25.941,12.9931-18.3828,10.738-46.5621-9.21-58.7432-8.057-7.3926,9.4295-3.4183,14.2737-2.8338,44.7311,4.9178,94.4228,60.1385,51.2224,94.5128-44.9595,22.4283-21.0466,17.5611-29.4274,52.6028l-.0775.1511ZM1443.9432,422.1291c4.8017-6.2496,4.0012-16.3376-1.2077-22.1187-4.1691-4.4826-10.3316-6.2087-15.5423-9.2091-7.2678-3.9054-13.5114-9.0126-21.5634-8.1708-9.6991,1.2491-18.5034,11.5311-16.7308,21.429,1.2074,6.1069,5.3187,11.9256,9.1828,17.6105,3.7854,5.5786,8.6777,11.0729,16.081,10.1383,5.903-.5085,13.4873-2.4558,19.3528-3.8725,4.6249-1.2258,8.134-2.8506,10.3229-5.6731l.1048-.1336ZM1440.0601,443.7118c.0676-3.7231-5.3028-5.2927-8.4066-6.338-9.1978-2.6621-25.536-1.225-32.1701,5.883-5.1617,5.6554-3.2921,13.6973,5.4233,13.5044,3.6428.0329,8.2528-1.2973,13.3015-2.8747,5.9818-2.2297,20.2057-5.0188,21.8345-10.0815l.0174-.0932ZM1366.5308,635.3143c1.7498-3.7147,23.152,8.9834,27.1351,10.4979,9.5015,4.6916,16.7304,8.2722,25.9797,11.9536,5.2436,1.9223,11.155,4.6687,16.581,2.2037,6.1869-2.8919,8.1684-13.2084,8.6389-20.1035,1.1559-10.7763-4.1466-19.7342-11.9614-26.5351-14.9857-13.6033-32.7376-22.4328-52.3529-22.1098-6.8025-.0083-13.5936.1795-20.4385-.7455-9.9878-1.473-19.264-3.9519-29.1329-3.5085-4.6734.0054-8.9408.4131-13.5611-.1443-9.1472-1.2047-18.1086-5.9993-26.7957-9.1097-8.625-3.4747-18.6334-7.7419-24.513-13.321-3.4621-3.7846,2.0439-3.2699,4.849-3.0019,11.7989,1.695,19.384-1.5922,28.243-9.4592,6.0664-4.9738,19.371-16.0196,9.6696-22.6107-4.3099-2.7324-10.5337-3.8987-16.156-4.951-4.622-.832-9.876-1.7472-14.7989-2.6198-6.3984-1.1017-11.8744-2.2183-15.621-1.8891-11.0618,1.0056-7.7734,17.2327-13.6789,23.7833-4.7365,5.0212-12.4404-4.601-18.7178-8.609-2.2918-1.6513-4.6862-3.1982-7.1554-4.5212-4.3924-2.3699-9.1061-3.9559-14.0845-4.1677-9.5837-.6659-25.3484,4.3898-16.191,16.1896,2.5749,3.4474,6.6993,7.0857,10.4801,10.4916,8.0401,7.1357,16.5446,13.7116,25.5981,19.4784,12.052,7.8734,25.9791,13.3744,36.3361,22.8516,4.9994,4.5746,8.8469,10.0479,13.0761,15.3083,6.5793,8.0792,15.3439,16.8132,24.1247,22.297,3.4355,2.1093,8.0488,3.6579,11.1764,4.5123,3.5842,1.0211,6.169,1.7568,7.9469,4.5727,3.1468,6.4311-5.8874,10.5282-10.1995,13.9737-3.9699,2.8665-6.766,7.2099-7.6109,12.1461-1.7671,8.0563,1.5614,20.2564,7.6723,24.1884,3.2605,2.0457,6.661-.8294,9.4654-2.1286,4.2863-1.4951,5.5428,6.0516,7.4089,9.0554,1.3615,2.7872,3.0388,5.5644,5.1673,7.8456,6.6743,7.7038,25.2584,11.3919,35.1674,9.0386,7.6426-1.7564,11.9168-8.451,17.0894-13.6965,1.2213-1.2196,2.5226-2.3725,3.905-3.42,7.2758-6.3956,23.5252-7.6531,19.5314-18.2746-6.179-12.4273-26.2738-22.9969-37.6806-37.387-1.7683-2.277-4.959-5.7556-4.6098-8.0193l.0179-.0545ZM1420.3612,585.6111c6.261-1.6969,7.4991-10.6027,4.6762-15.5038-1.17-2.1023-3.1093-3.6433-5.2159-4.9266-13.2583-7.6888-44.7218-19.6985-67.5659-20.8647-10.4029-.3058-12.7379,8.0847-8.4584,15.971,1.7331,3.119,4.5804,5.5915,8.057,6.4372,5.5133,1.4643,12.8522-.4974,20.007.2228,10.7563,1.0037,20.4975,5.843,29.7576,11.276,5.6589,3.1199,12.4664,8.7473,18.6078,7.423l.1344-.0349ZM1206.8682,609.5809c3.241-2.4346,2.8478-7.9856,1.8177-11.7211-2.4991-9.8571-12.3424-15.0228-22.0594-19.1259-7.0279-2.6724-14.1886-5.3124-19.4436-3.5519-6.2999,2.9478-1.6091,11.3512,1.5092,15.3099,5.5566,6.8708,13.393,10.491,21.5387,15.0406,5.1882,2.6076,12.0402,6.8985,16.5313,4.1232l.1061-.0747ZM1202.1638,628.5848c-2.8034-7.3193-10.8353-11.707-17.632-14.4868-6.8146-2.7711-13.9407-2.3838-21.1488.0505-5.3044,1.7891-10.5586,4.655-15.5271,7.541-8.3844,4.8793-15.2651,9.7332-22.3811,9.4374-4.3864-.1662-8.4972-2.1302-12.4966-3.9925-14.1712-6.8124-30.4231-15.0321-44.8104-21.7465-12.5659-5.8573-30.6257-14.7248-19.4826,7.5803,6.4818,13.8059,15.3881,25.739,24.664,37.6614,5.4651,7.4773,15.3907,17.6813,16.308,26.3234.3455,9.3594-12.4204,7.6093-18.8457,7.9874-4.7817.2053-11.302.6097-11.6159,5.4932.8521,4.6542,6.8002,5.9894,11.1701,6.5404,26.2614,2.2317,50.6062-21.8266,77.8835-29.5673,17.3032-5.304,35.4146-6.8064,47.8343-20.1553,4.7219-4.8291,8.6293-11.8656,6.1344-18.5172l-.0542-.1493ZM1239.6552,654.4658c3.9907-5.6356,4.9716-12.6694,8.5921-18.5219,4.1741-6.8885,7.8552-12.4661.9877-16.9109-9.2892-6.0593-31.3305-7.0274-35.8987,4.9952-.9246,2.6205-1.0399,5.8118-.9243,9.3555.4328,7.0199.6317,15.4134-1.3011,22.4752-1.034,4.6604-2.9339,8.8823-3.4278,13.4929-.5452,9.3521,8.1361,4.249,12.2547,1.1701,6.4662-4.9679,14.7296-9.3167,19.6058-15.9015l.1117-.1546ZM392.9392,687.9524c7.7582-1.9783,11.2437-9.6071,16.4038-16.4702,5.5365-7.8856,11.1718-13.637,17.5269-20.0802,3.8743-3.5487,10.3005-13.9384,5.5659-15.4108-9.9492.6866-18.2057,18.2862-27.8707,21.596-3.8625,1.4135-7.7242,2.3796-11.186,4.8225-5.4403,3.5061-11.2945,10.5512-12.3433,16.2666-1.31,6.866,5.4242,11.152,11.7265,9.3204l.1769-.0442ZM1159.8797,728.6834c.2052-12.6045,20.5583-11.2226,31.4115-12.8692,7.9664-.7471,16.0317-1.705,23.841-2.107,13.6789-.3947,28.771.1708,43.0096.6665,16.524.7631,32.7202,3.6618,49.0697,6.9343,4.7213,1.127,18.4711,2.6916,11.3351-4.982-7.2454-6.8871-18.8689-8.7297-27.8319-11.7513-5.1835-1.7844-8.7825-3.5353-10.4254-7.9714-1.0109-2.7782-1.1742-5.9966-1.3839-9.058-.5269-9.2402-.9629-22.3312-1.601-32.2984-.8036-14.864-7.1939-11.6031-18.562-4.4904-12.0625,7.292-19.2738,15.1542-25.6645,28.161-8.0833,17.3553-14.2194,17.3954-32.2067,17.5435-13.0211.4442-26.3133.9395-39.3821,2.064-11.6409.8581-18.9532,7.7091-22.1486,18.6643-2.4335,8.978,2.6344,15.3906,10.3269,20.4774,4.3035,3.0902,11.2387,6.0764,13.271,5.5778,1.978-.257.8156-2.5298.3534-3.7159-1.2484-2.8576-3.3732-7.087-3.41-10.7005l-.0022-.1446ZM1181.7546,812.5525c2.4813-.5589,5.3944.6495,8.8005,1.9648,4.1549,1.7447,9.8551,2.9845,14.2705,1.8338,6.3291-1.4441,5.6963-5.8519,1.2527-9.2448-3.9438-3.2884-11.4704-6.2527-17.5047-9.6827-3.5261-1.9873-7.1491-4.3102-10.159-6.8756-6.2471-5.3492-5.8184-8.5866,4.6914-8.9443,6.3196-.228,12.266-.1278,18.8086-.2047,7.9679-.0464,16.0773-.0941,24.035-.1405,11.4606-.4153,20.6377,1.2446,27.1641-5.5519,5.6756-7.9079-5.3024-14.1922-9.8413-19.2135-2.7952-2.939-4.5413-5.4236-7.8924-6.4184-6.463-1.9394-15.9745,2.3644-22.7976,4.2279-7.8819,2.3925-16.0041,3.4632-23.9683,3.166-11.7179-.4071-23.3998-.81-35.0983-.1108-6.28.6532-16.5445-1.0293-20.8605,3.6353-3.4144,3.4719-1.7876,13.2618,1.1268,20.0095,4.1737,11.5048,12.1108,19.3495,18.0697,29.8903,1.6464,2.9995,3.12,6.1758,4.489,9.3492,2.9993,6.1112,6.5692,19.3576,10.3326,19.9679,5.5869-1.7438,6.1873-25.7577,14.9671-27.6315l.1144-.026ZM1092.1273,774.5581c-5.2477-2.095-11.5045,6.1092-13.7752,10.415-3.253,5.6757-4.4134,18.2697,2.1165,20.4786,5.8714.3898,8.9973-8.6392,10.8874-13.5992,1.6243-5.1714,4.7489-13.9365.8671-17.2352l-.0959-.0592Z"/>
      <path class="d" d="M845.134,842.2824c6.7828,2.2389,13.1242-7.1903,19.2345-9.9732,16.6154-8.446,2.6417,24.8885,1.9045,31.2763-1.2963,5.3122-1.9853,10.9002-3.0887,16.2257-4.3124,19.9129-22.1262,12.359-29.4497,40.469-10.6721,43.0567,26.0715,54.1686,23.9613,74.5175-2.5373,12.4441-14.2752,23.7115-26.0063,26.9062-14.8939,3.5104-32.4169-3.6219-41.9898-15.3363-16.6958-22.1127,10.4342-42.3695,20.8511-60.8467,1.305-2.2387,7.4924-14.3182,1.1913-12.324-4.1114,1.8882-8.9234,7.151-13.1378,9.5312-12.1876,6.9954,1.781-12.7096,4.2848-18.106,3.2616-4.7997,5.4856-13.374,11.4453-14.8103,3.0266-.3914,6.7514.4993,9.4731-1.5181,10.5118-9.3537,11.3026-34.1305,7.375-46.3409-3.5921-8.2298-10.8133-1.0199-16.5559,1.408-6.8566,3.2745-12.4576,5.5356-15.7886,13.6777-3.7637,9.5681-3.5136,25.0804-16.5647,26.4723-7.136.929-15.5441-1.9686-22.8672-3.1742-7.086-1.2672-14.5161-1.4246-21.7198-.5214-53.1289,8.7267-4.4729,25.282,16.1115,35.389,3.7184,1.9616,11.9837,5.1405,8.5265,7.4607-7.2407,2.7618-23.6893,3.7011-32.4808,4.6671-27.7041,3.1148-55.5372-7.0508-73.742-28.2058-7.6036-8.4995-13.465-18.4205-20.0092-27.9095-5.6832-8.4249-12.0901-16.4451-16.7865-25.4797-6.89-10.9458-11.6466-41.2259-29.6032-30.0111-4.873,3.2118-9.4053,8.8546-14.3565,11.4837-6.7139,5.1503-17.2164-9.0268-21.0916.5215-3.0228,16.0862,19.8313,21.7626,19.5765,37.5399-.0048,16.7665-12.369,32.7505-13.368,49.7005-1.0456,9.652,7.4216,35.321,18.8016,34.0885,5.1482-.7798,10.4157-7.6314,13.23-12.8211,3.6622-7.2927,8.801-14.684,12.6438-22.1264,3.7128-6.8767,4.7912-14.0539,8.7622-20.1663,7.1451-7.0522,6.2767,36.2223,4.4634,40.3796-4.9136,28.6565-23.3407,62.4318-51.2645,72.5377-29.9895,10.9016-43.7957-25.2762-43.4235-49.2515-.4675-7.6242-.5663-22.6075-9.3415-11.6781-6.1554,7.3421-9.4752,19.2012-11.1214,27.4197-4.0792,8.4751-17.6841,5.1264-25.1827,3.1228-22.6873-8.2822-36.7352-36.8586-27.4806-59.3545-.4728-3.094,31.7853-61.209,31.7909-42.4997-.8974,12.092-8.4711,28.7725-7.7029,41.725-.4031,7.3036,4.7519,21.1247,11.8211,9.3892,4.0092-7.7714,5.5633-17.6285,8.8399-25.8473,3.9791-10.8584,10.5402-22.8625,14.7663-34.2247,3.9564-10.4314,8.0705-20.1937,10.2904-30.6016,2.0858-11.201-1.7041-23.182,6.2013-32.4853,9.779-10.7058,26.5371-15.0565,33.8094-28.8194,25.5565-44.3652,50.8909-77.0102,29.3155-127.4899-2.9642-11.486-4.611-28.9066,8.295-34.48,7.8646-3.0817,20.3619-2.6725,26.2596,3.7477,6.0211,8.9514.1013,29.0588-.229,40.6467-.6991,7.1162-2.5426,13.8796-4.768,19.8457-1.6423,4.1749-1.743,7.8694,3.2684,8.5749,10.0301,1.6471,25.5994-1.0775,35.2343,6.1383,9.8967,6.4626,19.4378,23.7896,33.0519,16.0125,4.2481-1.9958,6.9278-7.4909,11.3428-8.2729,4.8129,2.5951,7.6357,10.1048,13.6706,14.5116,5.0778,4.1554,11.913,6.595,17.2935,10.0508,14.3139,10.3308-5.2112,19.4991-15.5352,28.4274-10.7887,8.1525-20.9386,18.2037-33.9382,22.53-6.9,2.3505-34.2962,6.2313-17.2726-2.8483,15.0277-9.5115-2.8816-19.8032-13.8066-14.7438-10.3775,3.9396-25.3157,10.051-30.4111,19.5003-3.0225,6.5441,1.4204,13.3828,3.8495,19.3505,5.1962,9.6558.8772,17.9894,2.2545,27.9632,3.6785,12.5621,14.8733,21.6734,26.5651,27.0685,19.0087,8.0904,39.4362,13.9246,59.9927,15.659,10.9619.6463,32.0507,3.5247,26.1827-13.6184-12.3402-38.3786.403-101.7892,21.2442-134.0489,11.2252-17.263,19.9786-9.6327,31.8552,2.62,6.1025,6.7224,20.2262,6.354,22.4053,14.8408.6086,10.9891-8.218,20.6996-11.2128,30.7127-4.418,20.6435-5.1193,24.8705-16.7242,43.3157-5.9569,10.5366-12.5319,41.846-5.1738,52.2302,4.0116,1.3255,9.9894-15.3881,14.0177-20.0057,4.6264-7.1087,10.2548-14.1258,15.4305-21.0816,23.3822-30.8569,25.7131-64.4643,32.7342-85.0286,3.8612-15.1697,17.6943-17.3819,30.5598-8.5515,6.2038,4.2424,12.7133,9.2155,17.6005,14.7873,3.3018,4.3028,1.6067,5.592-.3048,8.2837-.5016,3.2357,5.2688,4.8933,7.9323,6.3635,11.7446,5.0628,24.7057,7.5347,37.1153,5.8681,10.779-1.8053,9.4584-4.5368-.2732-7.8556-3.8941-1.5712-6.1909-4.3653-8.0412-7.24-5.2394-7.1805-3.6317-16.7297-7.959-24.4827-13.5588-18.2367-28.9551-22.1599-50.7846-21.5756-15.612,1.3824-38.4302.1908-13.082-13.9627,8.9459-4.5163,19.1084-3.1566,28.2229-5.497,3.2245-1.0778,5.5741-3.806,8.0797-5.8725,7.0064-4.6055,15.3196,1.7148,23.8322,3.7435,21.1255,7.2505,48.1548,16.238,67.5805,23.1923,15.2025,5.7627,31.3064,12.4306,41.8836,25.3111,5.8094,7.0883,11.8919,20.5936,5.9802,28.17-2.3337,2.3894-7.4149,3.444-11.7143,5.1936-5.4605,1.9951-10.0258,5.8628-15.4352,8.032-9.483,3.6274-20.5365,3-30.8583,3.2594-9.7869.1254-20.5489.2344-28.8703.3408-17.5993-1.5706-36.0355,7.3972-52.7007-1.2854-9.9629-5.3385-19.5223-11.635-27.2363-19.9738-3.0744-2.8467-7.8076-11.1978-11.6562-10.1151-4.3544,4.3517-3.6671,13.701-5.0883,19.788-1.6601,11.6371-3.0404,21.3834-4.9703,33.0035-.5801,8.0696-5.5527,20.7327-.3063,27.423l.07.0477ZM704.8406,771.3041c3.3105-.786,5.2579-4.8409,5.7437-8.2441.6758-4.1254-.6017-8.477-3.1455-11.8131-4.5175-5.9369-16.5041-14.7003-23.2054-10.4568-5.2345,4.8577.181,12.3079,3.6498,17.2602,4.1549,5.045,10.3281,14.1782,16.8111,13.286l.1462-.0322ZM553.4966,884.0287c1.8111-10.7692-5.7355-9.1782-9.6359-2.499-3.2359,5.2567-5.2283,11.8129-7.5216,17.635-4.141,11.0849-7.6193,20.7194-9.56,31.5615-2.0416,12.2387,7.7948,11.11,13.5327,3.6176,2.2503-3.0793,2.0735-6.8384,2.6909-12.4894.1669-1.6091.3573-3.2042.5884-4.8467.8396-6.0042,2.2027-12.0956,4.2485-17.808,1.9273-5.5507,4.7902-10.73,5.6218-14.9988l.0352-.1722Z"/>
      <path class="d" d="M1048.3615,75.6005c-10.944,18.855-11.9527,69.2957-34.9574,74.9237-5.4074,1.2553-10.1148-1.5825-8.4024-7.5036.3454-4.6625,15.9331-20.2953,7.4598-23.1009-5.7065-.9785-12.0754,3.5404-16.8987,6.5748-6.9883,4.4815-14.8863,8.9041-20.9324,15.1143-9.7689,9.255-13.0632,23.628-7.5693,36.1221,2.2426,7.6452,15.072,23.6082,6.3301,29.4476-3.828,2.2517-9.321,2.2859-13.8663,1.9673-10.5741-.7528-20.053-6.1511-26.7024-14.5065-3.6935-4.5159-6.4718-9.8077-10.6618-13.8711-6.7419-6.8052-17.1006-8.8082-24.23-15.0982-4.7166-4.0024-7.2305-9.8947-11.4636-14.3066-3.6538-3.8304-9.4438-6.5271-14.541-5.74-10.6693,2.1186-15.7964,9.2595-27.5548,2.7163-23.6322-12.6713-36.7858-39.0648-33.4365-65.2135,2.8308-21.1755,11.8753-37.9629,32.9262-43.5356,5.7542-1.9465,12.0247-3.9503,16.9413-7.3296,8.0888-5.1577,11.2489-14.4042,17.2756-21.377,5.7165-6.8772,14.1084-10.8032,22.7391-10.0929,37.07,4.2217,68.4726,66.3219,54.348,113.6463-2.6443,7.3972-8.4264,12.7931-12.1981,18.2892-2.3628,3.5533-5.0488,7.9578-4.1753,12.3045.9155,4.2292,5.3306,5.5245,8.9517,3.2999,10.7699-6.598,17.1136-17.4992,23.8919-28.332,7.5064-12.5411,14.993-25.1828,20.8903-38.5165,6.7846-15.3867,11.7581-32.5868,23.0964-45.4244,20.435-23.9456,57.1541-32.0771,86.6193-21.2079,49.5272,18.4836,30.6618,63.3772,2.2765,93.0699-9.2895,9.7528-21.0882,16.8227-27.9678,28.2971-5.193,8.0456-8.862,18.7533-14.9763,25.6207-5.8243,7.2153-18.7893,12.2713-9.7892-2.1876,11.2779-15.7307,21.5597-30.7923,31.5514-47.5575,6.3716-11.2351,15.8961-23.1228,16.8092-35.4606.4431-19.3632-25.0108-18.0207-37.7246-12.6731-6.032,2.3836-10.9705,6.1048-13.9668,11.482l-.092.1594ZM902.3037,107.5593c-3.2117-4.7321-15.3356-7.4346-17.7342-1.0077-.8154,3.9692,1.6751,8.2091,3.4206,11.7971,3.8447,6.7423,11.853,21.4441,15.4743,10.2491.4622-1.4255.835-3.1583,1.1017-5.0212.6904-5.0304.8788-11.9638-2.1448-15.8634l-.1176-.1538Z"/>
      <path class="d" d="M326.8694,221.2034c-6.095-9.451-18.3688-14.1902-29.416-12.0762-6.0324,1.1326-11.4218,4.1844-16.7493,7.1032-5.6043,3.1743-11.535,5.483-17.4009,8.061-11.6481,5.0751-23.23,13.1831-27.1624,25.8937-1.7778,4.7228-2.1263,9.8212-1.6695,14.6985.2402,4.9433,1.4537,10.2757.0412,14.6972-1.8124,6.9984-13.8827,16.8809-10.0356,24.4688,4.9647,4.1585,16.3198-9.4282,22.1026-13.024,3.7128-2.8231,7.7881-5.2672,12.1607-6.7246,8.7163-3.0384,5.2485,2.411,2.722,6.4852-7.4988,10.8239-9.7152,24.372-15.2859,36.2284-2.3053,5.4921-5.5699,11.2926-5.4599,17.1584.1887,11.0945,14.8472,10.3319,15.1699,21.929.785,7.7109-.0766,17.7658,2.1958,25.8018,2.9284,13.7831,11.3985,28.0182,12.8075,41.794-.0171,11.5839-17.8129,7.9432-25.4662,7.4015-14.7687-1.1446-18.0061-16.0978-24.1949-27.0892-8.4566-15.056-9.3901-22.0496.8964-36.0249,3.7701-5.298,2.3226-9.5375-.5724-15.2496-3.0724-6.3959-7.9256-14.9203-12.4485-25.3941-13.0326-29.791-16.9222-64.6499-3.3472-94.7444,5.6643-12.8792,14.339-23.8905,24.3788-33.7275,20.5885-20.4756,46.9416-34.5422,76.7563-30.1803,12.9659,1.7584,18.8804-.4418,19.4846-14.8513.4492-20.8568,11.3775-39.0719,28.8218-49.5648,27.0479-15.8294,66.3562-5.2578,91.682,13.5362,23.8997,19.3143,43.6714,49.3242,50.2012,79.3213.7397,5.0597,2.0122,12.1115-3.0852,14.5174-7.1116,1.4136-13.0928-4.7821-19.8917-8.1245-4.0461-2.1396-12.7214-6.017-16.6397-2.6909-1.2126,2.1549,1.6103,5.3732,2.5685,7.6048,5.117,8.2475-4.7706,7.7887-9.9493,4.2808-6.9344-4.1825-10.1327-12.6009-8.9065-20.4651.7594-11.1404,11.0457-22.3344,1.6221-30.9209-7.0205-6.6403-21.585-16.6071-37.6698-17.5814-10.6948-1.2498-18.7758,4.8086-27.5489,8.7166-12.0968,3.5498-16.2319,4.2916-23.6338,16.4312-6.8532,10.6267-4.7303,22.183,1.4635,32.5094,4.72,8.2907,8.8018,17.1669,13.0014,25.8346,3.2109,6.7092,6.6083,12.0897,8.6656,17.703,4.0471,12.78-16.8869-6.0144-20.4593,9.2733-1.7001,6.2631-2.1665,13.1161-3.5389,19.4998-1.2942,7.0797-3.2599,13.7303-4.2747,21.0045-1.4764,9.2188-.291,19.5053-8.3093,26.0543-10.3612,8.1416-26.4386,15.2149-36.472,24.0072-4.8752,4.2345-13.7728,8.576-11.0018-.355,2.0696-5.1828,6.2378-8.6464,11.284-12.2933,12.5881-8.4912,27.743-15.0998,34.2143-29.7645,9.704-20.8675,5.1416-45.6512-1.6781-66.8185-2.7963-8.3029-5.2266-16.9257-9.867-24.1902l-.1054-.1595Z"/>
      <path class="d" d="M647.7348,465.2751c-5.3688,1.2414-12.7693-5.6471-17.5265-9.4653-14.0256-11.3212-21.1897-29.4746-26.828-46.3191-7.1912-22.1419-5.1697-43.4794-27.9729-56.3284-5.5952-3.6089-12.5573-6.8037-18.2477-9.7483-3.7467-1.9948-6.2663-3.8188-6.59-5.4556-.73-4.3354,13.459-6.8814,17.0192-8.5456,17.9104-5.5851,25.7293-16.8362,37.8898-30.7319,12.5969-14.7708,28.3205-29.2658,21.3798-48.762-2.1503-5.4623-6.4612-11.7173-12.967-11.157-4.4987.3679-8.414,4.126-13.7068,5.9443-4.6417,1.6904-9.237.976-14.2765.3374-6.4153-.7196-13.031-1.6334-19.4518-.9825-4.4938.5342-8.9558,1.895-13.6122,3.539-12.9967,4.902-22.0297,15.0848-37.2144,12.5945-7.2624-.9509-16.8329-5.7735-12.0601-14.2039,3.6681-6.9206,11.7877-12.3553,18.3461-18.2629,8.3394-7.2286,16.6719-14.2931,25.7733-20.6901,4.943-3.5715,10.1936-7.1199,12.6937-10.8125,7.2579-11.9817-7.7513-8.4923-14.8547-5.864-5.1099,1.7686-11.4037,3.5187-16.881,2.8636-9.4944-.6208-5.27-7.43-1.8208-11.9523,6.967-8.6465,14.7365-17.0102,23.0862-24.2352,9.9322-8.4298,22.4942-9.2983,28.5324,3.7476,4.0926,8.4998,3.748,19.4542,8.1324,26.5941,5.3082,8.9019,16.7811,10.3878,25.9032,13.5712,9.2928,2.9277,16.8796,8.4233,24.6838,14.6172,7.8084,6.2433,15.8357,12.5667,22.7059,19.571,9.6549,10.1083,19.4436,23.3228,34.8004,23.2234,3.6804.1099,7.3187-.3854,10.598-.858,4.7816-.4197,11.6807-2.6995,14.4921,1.4626,3.4795,12.1591-17.1269,39.002-39.85,54.7738-5.8671,4.1214-12.13,7.7665-17.5057,12.3159-7.6682,6.3743-7.2749,10.6833,1.0913,11.9449,7.7742,1.0489,16.52-.2329,24.4048.43,21.6975,1.1907,42.5173,8.0493,62.8431,17.2698,7.4737,3.2427,15.87,7.9776,15.2282,17.1371-.4485,7.2951-5.4345,19.4716-12.732,22.1923-12.3392,5.2265-35.4719-7.3528-54.3428-14.8915-9.2025-3.7234-18.065-6.4034-26.85-7.6107-5.7155-.8174-11.4729-1.1053-17.2379-1.165-7.5526.1255-13.8709-.5764-19.3336,2.3338-6.8668,4.5472.0483,16.0825.9938,22.6185,2.9556,13.3748,2.5045,30.7191,5.8366,43.8928.8262,5.3016,9.8303,22.3724,5.4918,25.0378l-.0634.0298ZM648.0716,352.607c.3573-4.8756-3.087-9.5628-4.0932-15.6947-1.6384-8.7893,3.5609-27.4017-11.0212-26.097-4.4776.5619-9.911,3.9746-14.0105,7.5011-4.8413,3.9142-7.7626,9.7077-6.4408,16.0365,1.7012,8.0842,6.31,20.5404,13.1836,25.106,5.7053,4.178,21.2082.7459,22.3653-6.7183l.0167-.1336Z"/>
      <path class="d" d="M513.4606,813.6391c4.41,5.6709-1.1453,14.1965-5.465,19.0311-6.1706,6.9844-15.5113,8.9201-24.4463,10.0399-6.957.9116-14.3928,1.738-21.1674,2.5379-37.8261,4.5916-86.1478,7.9672-110.83-21.1066-11.5474-13.0793-12.5031-26.6759-4.1375-41.9986,3.8711-7.5638,7.8344-15.0097,11.0189-22.8398,2.7232-6.0014,9.1565-27.0932,17.6526-18.7007,2.7868,2.958,4.9688,10.2287,6.6103,15.0686,2.9763,9.1452,8.5065,17.2173,18.2912,17.8662,15.1448.4051,24.3535-10.4439,29.8668-24.6376,3.4719-8.2089,6.8298-16.9902,10.3318-25.0871,3.6974-9.2072,9.685-16.0225,16.6127-23.2521,4.1342-4.298,9.1371-8.9317,13.8963-12.2157,2.5179-1.7123,4.5569-2.6413,5.8324-2.4435,4.7885,1.0986-2.1446,16.6646-3.0075,20.7219-1.3893,4.77-2.693,9.844-2.9855,14.5951-.7947,15.1101,12.1962,17.3777,23.9568,21.3481,6.8426,2.4439,13.09,6.1008,19.2128,10.061,13.8894,9.2273,21.9606,12.2618,17.8594,30.1583-2.6304,14.5529-7.7557,23.9137-24.3149,20.2844-4.7415-1.1456-8.9913-3.8056-13.4247-5.6709-5.6785-2.5967-11.8501-2.0842-17.9264-1.7901-2.9463.1035-5.8898-.1007-8.7895-.5543-5.7351-.7537-10.9979-2.5151-14.1925-.8359-2.0416,1.5937-.6932,3.87,1.1545,5.8682,2.3367,2.3774,6.1594,3.9673,9.4358,5.1523,11.0223,3.9874,22.1796,5.6943,33.5768,5.4463,5.0101.0802,11.5538-.7324,15.2982,2.8677l.0797.0859Z"/>
      <path class="d" d="M158.0138,409.6632c-5.1465,3.6949-14.0725.2151-19.9575.7924-1.5257.1092-2.4316.4349-2.5487.9662,1.7783,5.3947,28.764,10.932,33.2755,13.4684,2.6148,1.0483,5.2743,2.8187.7931,4.0169-45.084,9.0566-89.8305-11.4419-125.5631-38.1521-10.0964-7.6213-19.6959-15.5716-28.6305-24.3147-10.8679-10.479-20.0267-24.9688-11.0166-39.7789,2.9171-5.0778,7.3087-9.6436,11.8902-13.4351,32.2283-26.5191,78.6689-29.8805,115.5181-8.6656,8.6245,4.7572,14.9956,10.079,22.5025,16.5703,14.2331,12.5826,30.5566,25.7764,43.9926,38.7707,4.6351,4.5934,10.8934,10.925,3.6826,16.3571-4.5316,3.8281-12.1425,5.5294-13.9984,11.3471-1.5266,4.5515,1.9112,9.7233.4095,12.2989-.7089,1.2001-2.0323,1.5222-3.4388,1.6378-6.3378.3725-13.8539-3.3195-19.7669.0035-3.3825,1.9787-3.9392,5.8475-7.0418,8.0449l-.1018.0721ZM132.2232,313.7773c-.0195-4.2628-10.2042-7.3468-14.7204-8.7253-5.3133-1.2831-14.6719-3.8183-17.8723,1.1319-1.4806,5.4417,7.9266,8.7107,12.1439,9.616,5.6256,1.0974,18.5018,2.0983,20.4289-1.9389l.0199-.0837ZM150.9902,398.6463c.1984-.7582-.8467-2.0485-2.8575-3.5819-4.152-3.3921-11.2991-6.2226-14.0475-11.0879-.455-1.0844.2866-1.8684,1.2972-2.171,2.382-1.4843,23.4986,1.3065,16.0143-6.8678-3.5079-3.5914-10.2899-6.2249-16.0462-9.0329-6.5644-3.1692-12.8444-7.2537-18.4482-11.9296-6.631-5.2666-12.6407-13.1102-17.2073-16.73-2.2253-1.7596-4.8786-2.9014-7.7068-3.3037-4.6997-.6681-10.8988.0052-13.6502,2.7199-5.5039,4.9486,3.7382,13.214-3.0696,15.8194-4.9861,1.9152-17.4233.5532-18.3466,8.7987-.0327,6.9001,5.2387,13.3362,10.4143,17.6238,11.8724,9.69,29.061,10.5391,44.2195,12.8865,9.9792,1.2927,17.8481,3.5029,26.989,6.0211,3.2215.6357,10.9952,2.978,12.4327.8824l.013-.0471Z"/>
      <path class="d" d="M225.2711,469.6951c1.4149.7921,1.396,3.1704.6053,6.8786-1.2083,5.3974-3.518,13.5072-5.1699,19.8298-11.7113,54.721-46.9786,89.4996-104.5088,95.234-19.0864,2.323-38.1452-1.4461-47.4076-19.7155-4.0614-7.6032-.2441-14.8592,4.6864-21.8643,6.1878-9.1548,15.4111-22.8013,21.2335-31.38,5.7832-8.8455,11.9991-15.5193,19.6721-22.8133,13.8152-13.4107,26.8517-27.0096,39.7005-41.1206,5.3041-5.4806,14.9504-16.104,21.0422-6.3655,2.1827,3.3737,2.6651,8.7129,4.7585,11.5776,3.9171,6.1545,12.2106,1.5912,17.5681,4.352,3.4189,1.7842,3.5193,6.3746,6.6116,8.4298,6.2499,3.5674,15.4371-4.8993,21.1364-3.0829l.072.0403ZM141.6908,529.4522c1.674-5.1652,2.7866-16.1027-3.8511-16.3472-5.6684,1.2267-9.2342,9.4383-11.1673,16.2211-2.0963,7.1967-3.2206,28.3006,6.3642,17.1344,3.6011-4.4457,6.8156-11.1622,8.5796-16.7604l.0746-.248Z"/>
      <path class="d" d="M1051.3943,899.7387c-17.2109,7.1599-36.7131,8.133-54.3708,2.4073-10.5214-3.4162-21.9705-9.3515-33.2854-12.9755-12.0993-4.3989-26.1393-4.9826-36.1293-13.7318-8.3384-7.488-11.9763-19.5029-16.5737-30.1062-2.7782-7.4181-8.1848-14.5474-9.7495-22.2258-.9218-8.9171,11.6142-5.6302,17.2848-4.612,30.1605,6.502,55.9644,18.9232,85.9833,16.543,3.1871-.2442,6.5838-.5841,9.6719-.5813,15.2276-.4902,18.6547,10.2043,26.6431,20.3467,2.1755,2.6119,4.6012,5.0083,7.2196,7.1822,6.3381,5.3912,14.0845,8.8104,17.828,15.862,4.6728,9.6411-5.638,18.0041-14.3294,21.8049l-.1927.0864Z"/>
      <path class="d" d="M856.1792,521.083c1.2617.9369,2.9285,1.5754,4.4044,2.2507,3.6176,1.5448,6.756,4.7221,7.5274,7.2932.5906,2.1617-.4566,4.0418-1.4867,6.0261-.9836,1.8097-2.1334,3.7373-3.2382,5.5044-2.7115,4.1149-4.5435,7.6992-9.5393,9.6468-4.2672,1.7079-10.4814,2.0367-15.534,2.0032-25.2167.1028-16.9033-8.4989-26.2013-25.2109-2.6884-4.1843-6.8066-8.4052-10.0045-12.7945-4.9552-6.551-9.3046-13.641-12.1909-21.3482-5.5222-14.6752-5.6581-31.9474-2.7726-47.5897,2.2154-11.4679,8.0518-21.5935,15.1106-30.7746,18.0772-23.7397,43.2152-40.9907,72.7336-48.1657,21.8387-4.9471,12.1898,6.0957-.1502,13.8093-7.5392,4.935-15.2653,9.4221-22.0627,15.4962-7.733,6.7266-14.7654,15.6807-19.3889,24.5009-4.2364,7.7323-7.2747,17.4523-10.3544,25.2607-3.8031,10.7382-15.2276,15.8258-21.0265,25.4155-6.4515,9.6928-2.4742,23.73,6.8438,30.0014,4.3841,2.9552,9.7967,3.3249,14.9214,2.4352,5.5484-.8957,11.1627-2.9146,16.8619-3.0146,6.9682-.0303,14.4766,1.1963,13.7668,8.5334-.6274,4.7782-2.3122,7.7687,1.6986,10.661l.0816.0604Z"/>
      <path class="d" d="M896.129,993.3225c.0892-3.9051,5.708-6.3872,8.5953-10.8756,6.3467-8.8807-6.2948-17.3741-4.1205-26.7712,1.9218-7.168,9.5373-11.2808,14.7459-16.203,6.1372-5.1006,9.5007-10.4724,15.2267-10.3041,4.684.7017,7.6407,4.3348,11.2255,7.5161,2.273,2.1779,4.7877,4.6288,7.3246,7.082,5.6804,5.7252,13.6384,12.1348,16.0046,18.9626,2.1587,6.2732-1.5418,12.4473-5.3014,17.4747-9.6579,13.0365-24.9002,19.9036-40.9179,20.2595-6.9068.0793-21.7424-1.353-22.7768-7.0436l-.006-.0974Z"/>
      <path class="d" d="M1059.9857,544.6749c-12.3488,2.2933-14.0874-9.8223-15.3287-19.0149-.6228-3.0291-2.0776-4.6101-3.7669-5.7508-9.4952-4.6829-10.0701-9.4542-13.3741-19.5369-2.4576-7.233-3.1831-14.3635-6.0619-21.8008-1.2603-3.2717-2.9924-6.6306-4.2942-9.8088-3.3073-8.4672.6505-7.6456,6.0142-12.5066,2.5391-2.4594,2.3221-6.0623.9828-9.2522-1.5371-3.8097-3.9806-7.5103-6.391-10.8886-3.3141-4.6861-7.3248-8.6748-9.4141-13.5078-2.4834-5.2508-2.1283-13.6178,4.4443-15.3904,5.048-1.1935,10.8929,1.3535,14.5142,5.0345,7.5244,7.8034,5.9191,17.985,7.9828,27.453,3.3829,13.9961,9.7419,17.9977,7.0279,33.5046-.9608,6.8754,5.9301,11.4459,6.6074,18.2312.7673,4.5529-1.4317,12.3406.3231,15.5115,2.9504,3.8762,9.8434-.8833,13.7489-.3045,6.0466.9253,6.5323,12.7796,7.1448,17.9059.6643,8.6893-1.3463,18.3064-10.0044,20.0862l-.155.0352Z"/>
      <path class="d" d="M1106.0445,503.0433c-8.4023,13.3814-26.4077,28.4869-26.7225,1.3908-.1396-5.5683-.225-11.2253.0451-16.7686.6684-11.1378,1.1864-17.3731-6.6165-24.2957-7.864-7.0184-1.3374-14.994,7.6713-14.6995,7.5699.4853,13.1548,5.1346,20.0701,9.8897,2.3253,1.6981,4.7691,3.5257,6.8574,5.4151,6.4985,5.3437,5.6234,11.0489,4.7678,18.4809-.424,3.9247-1.8069,7.4939-2.6899,11.33-.7717,3.1774-1.5958,6.1737-3.2849,9.0869l-.0978.1703Z"/>
      <path class="d" d="M442.0657,270.9929c5.4089-2.0681,14.981,3.8975,18.3738,7.8466,4.0566,4.7956,1.0985,9.1144-4.2993,13.2946-5.9308,4.4663-13.5437,9.3792-20.8097,11.601-7.4842,2.3453-17.6503,1.3947-21.149-6.5208-2.1121-4.3731-1.89-8.9943-2.8312-15.5194-.9787-10.0365-7.4486-20.2521-8.659-29.9155.0642-2.4644,2.1832-.9502,5.5266-.1144.9094.2355,1.85.4178,2.7903.5656,13.9443.9846,12.1286,6.0049,17.7215,17.2995,1.8741,3.2173,4.5786,8.0772,8.1981,7.2288,2.0827-.7125,2.8426-4.5696,5.0601-5.7243l.0778-.0418Z"/>
    </g>
  </g>
</svg>