<?xml version="1.0" encoding="UTF-8"?>
<svg id="b" data-name="Шар 2" xmlns="http://www.w3.org/2000/svg" viewBox="0 0 1927.0644 1081.9927">
  <defs>
    <style>
      .d {
        fill:none;
        stroke: #0f0e0d6f;
        stroke-miterlimit: 10;
        stroke-width: 1px;
      }
    </style>
  </defs>
  <g id="c" data-name="Шар 1">
    <g>
      <path class="d" d="M195.2341,129.2953c35.2644,12.897,55.8662-47.9173,36.7777-59.785-1.6509-.9621-3.626-.9694-5.039.3303-2.373,2.0823-3.3669,7.4314-3.9366,11.0997-1.1001,7.1106-1.5322,15.1898-5.0931,21.7049-2.8726,5.9789-9.6869,9.6779-16.2694,9.5318-43.4646-.3825-6.6485-96.1503,49.5277-86.5131,26.6651.5088,50.9657,11.0398,67.019,30.7578,4.4967,5.4409,8.4755,11.8463,11.6489,18.5379,8.4205,16.3255,14.3319,33.5375,27.3473,69.0285,5.4401,14.7056,10.0223,27.0243,15.7626,41.4713,6.2385,14.8385,31.6717,82.773,39.0721,54.51.4478-1.2577.6996-5.4775,2.6561-3.2043,1.5634,2.2534,5.2426,7.6081,3.9216,10.0249-1.4883,2.2488-4.7558,2.9449-6.8966,4.5769-11.1029,7.5434-2.4167,19.3596,5.2981,25.856,5.4552,4.9509,12.7008,7.472,18.5819,11.2509,51.3058,39.4525,122.7423,54.5765,184.664,31.5028,5.5543-1.0579,11.3713.0681,17.1608.2063,1.8681.2908,6.3588-.5821,4.7867,2.4275-2.2443,3.8949-7.2454,8.5448-9.3128,12.5715.0451.0832.181.0887.4072.0248.2034-.0574.48-.1709.8243-.3315,2.8851-1.4395,11.1951-5.9153,15.9198-8.4387,1.3603-.685,2.9416-1.7638,3.2131-3.0413.4578-1.9474-1.4392-4.7573.6817-6.2001,1.3983-1.0194,3.8373-.8517,5.1647-2.1829,2.5899-3.3259,2.0931-9.044,3.3339-12.9103.3421-1.3609.6958-2.0561,1.1154-2.0478.6973-.0325,1.9925,2.2767,3.4165,3.1307,1.2696.9475,2.7862,1.4147,4.1129,2.2728,1.8779,1.1611,3.2896,3.363,4.2382,5.4211.7308,1.6044,1.5537,3.194,1.7332,4.9146.2912,3.022-5.8118,5.3463-8.5261,7.51-3.2267,2.3608-8.6508,5.2098-11.1053,7.5496-2.5951,2.4413,1.8495,3.9952,4.0254,4.1715,6.7586.9028,14.5332-4.6878,20.7647-8.9409,1.8416-1.2567,3.5392-2.6879,4.7841-4.5269,2.2534-3.3339,3.5328-8.0082,7.2208-10.48,2.0881-1.5906,4.4956-2.7699,6.8825-3.8592,1.0209-.4656,2.0042-.8959,2.7686-1.292.9487-.4898,1.5418-.9301,1.5599-1.3451.0078-.1383-.0455-.2736-.1597-.4065-1.6561-1.4337-5.9518-1.6377-7.5916-2.6785-1.478-.7338-.3062-2.0423.4669-2.8322,2.0295-2.0766,5.6333-4.6308,7.436-6.5164,1.2695-1.3648.0457-1.1259-1.2852-.916-4.8558.9144-18.1139,3.735-22.6294,4.5511-2.386.4439-1.7132-.6039-.6547-1.8185,1.8514-2.1663,4.8859-4.8947,6.2177-7.2226,2.0723-3.4016-1.8819-5.5921-4.6214-6.7722-8.0576-3.6118-17.2794-3.3662-25.0147.1097-5.945,3.5219-12.3942,7.534-17.9318,11.7647-3.8685,3.4926-5.0327,9.3946-9.9099,11.9222-2.368,1.4125-5.9379,2.2805-6.8524,3.4351-.6351.6538-.185,1.5329.3907,2.0668.7576.7612,1.6879,1.0547.9424,1.0459-2.3689-.1967-5.0812-.3289-7.6242.2307-15.8564,3.0317-41.6799,8.2807-57.1763,12.1355-2.1174.5304-4.2814.7719-6.4337.3966-4.3791-.7864-8.7613-3.4573-13.1598-1.2688-1.7559.7038-3.4624,1.6424-5.269,2.2236-2.3058.8077-4.7357.6372-6.9883-.2989-11.7868-4.8175-29.0777-14.5456-39.8206-22.3579-.5003-.7522.9104-.6146,1.6264-.6207,8.3335.459,25.5242,2.1369,31.4535,2.272.4588-.9859-13.8105-4.5989-12.3121-6.1673,1.1777-.9906,3.7075-1.0913,5.3515-1.5626,7.8999-1.6377,15.1319-3.7799,21.3274-6.64,1.4296-.6734,3.1429-1.4408,3.8624-2.8492,1.4532-3.4398-2.2643-7.3993-5.9665-7.2643-2.1018.0171-4.223.8508-6.3091,1.5035-25.6631,8.9364-49.2538,3.3132-65.1565-19.138-2.1689-4.5962-1.7192-8.0651-4.3478-11.9822-21.4988-29.6697-60.957-46.422-26.4893-92.4732,3.4088-4.4231,7.1023-8.4872,11.7158-13.1119,1.6203-1.5093,4.6422-4.8849,1.1913-4.7043-11.0526,1.6468-16.3628,12.9982-23.5389,20.2522-.8808.9154-1.3338.8919-.9633-.0955.7527-2.2198,4.751-9.3923,6.4105-13.4343,1.2807-3.1322.5841-6.4429,2.4196-9.3461,3.8361-5.0245,12.016-8.7045,16.8186-12.7355,3.0533-2.703,6.5312-3.5474,10.6555-3.6594,2.9377-.2388,21.434-2.3293,11.5561,2.165-2.1604.9004-4.8524,1.3599-4.9765,1.9323.0585.6227,1.004.6665,2.1794,1.0408,2.0167.6206,4.9051.6941,6.6441,1.8538.1257.2131-.0306.3442-.2108.4851-.933.715-5.5026,1.6066-7.257,2.559-2.8414,1.4757,1.4951,2.2964,2.816,2.496,3.2717.5404,6.7285.2885,10.4562-.8146,2.5058-.6498,4.9572-1.6699,7.5646-1.1458,3.9102.9543,6.079,5.3449,8.2868,8.4475,4.6582,7.2344,4.1952,10.4213,2.1076,19.3826-.3939,2.4425-1.8734,5.7098-.969,7.9964,1.5622.9951,4.619-4.1237,5.3757-5.5994,6.7667-14.1784-2.1728-32.4312-15.1436-39.7775-40.2351-23.5169-82.7064,23.0237-87.389,66.368-.4727-.1059-1.1611-2.1951-1.9708-4.9966-89.7011-323.7807-318.7605-112.5161-199.5596-52.7794l.1973.065Z"/>
      <path class="d" d="M612.8416,383.717c-1.602-.047-2.1461-8.0005-3.6277-6.4232-28.3411,99.3082,94.5649,190.3987,180.7232,132.0471,6.3246-3.7974,5.5026-7.845-2.1472-8.2511-7.8897-.1185-12.8257,7.8337-20.4036,9.0126-11.5963,2.6249-25.8222,8.2963-36.8264,5.6285-4.3641-1.4284-8.176-5.3994-12.7714-6.405-5.1136-1.2952-10.6989,1.6158-15.7452.7763-4.613-.7294-8.3432-3.6416-12.3038-6.0352-12.6537-7.8964-24.7018-15.7665-35.3403-24.9448-1.5957-1.447-3.5353-2.1986-5.5059-2.4135-3.9065-.6986-1.3711-8.0931-5.0786-9.9688-1.9613-1.1715-4.8351-.7942-6.2471-2.4307-.5906-.645-.8959-1.503-1.0843-2.3737-.9572-3.6894.002-8.9262-2.6038-11.9046-2.2548-2.1869-7.8536-2.236-8.1488-6.4337-.432-3.1621,1.1801-8.0657,1.2609-11.1024-.2541-4.7113-9.6197,1.9182-7.7958-5.8359,1.6483-9.3417,6.7909-22.2405,5.3109-31.1304-1.0332-3.224-4.9112-4.8042-6.6901-7.7026-.5228-.8028-.9099-1.7833-1.1449-2.6282-.3583-1.3617-.5933-2.3021-1.3241-2.2388-.8472.0439-1.5637.9426-2.4317.7776l-.0741-.0196Z"/>
      <path class="d" d="M946.9485,263.1532c-2.2447-.8323-4.1139-.6672-8.0318-.812-3.9165-.0973-9.0184-.2242-13.3436-.3317-4.2963.1687-7.654-.9508-10.9688.7147-7.8678,6.8396-13.5007,35.7654-6.8135,36.7013,2.8097.1227,5.2936-2.6324,5.598-5.3782.6115-3.2768-2.1058-9.8216-2.2386-11.4348-.039-.2183-.0363-.4815.1924-.2955,3.1532,3.9806,5.7345-1.1971,7.5753-4.0527,33.9426-52.3301,76.5621,59.817-33.9026,62.4051-.1933.0597-.159.0635-.2036.1031-.018.0318-.0028.0666.0465.1049.2328.1896,1.3924.4747,3.1862.8579,3.4619.7289,8.5929,1.8074,12.1481,2.5463,2.5857.5444,5.1782.8409,7.2852.3066,11.1013-3.6587,23.3935-8.5504,32.2692-14.8258,4.1831-2.9606,7.7813-7.2942,12.2713-9.7882,3.9961-2.2705,8.6336-1.4075,12.99-1.1507,9.7474-.0938,12.8413,2.3253,19.6704,8.9055,7.7959,6.9234,19.2395,11.32,30.3061,15.6158,4.0244,1.7326,7.674,2.5019,12.0753,1.3669,4.2007-.9238,11.489-2.2238,15.3474-3.3731.1735-.0919.1782-.1658.0273-.2267-12.2811-.8839-23.9505-1.8481-34.505-5.7001-63.1184-18.8758-31.4778-103.3327.5901-56.6296,1.7146,2.5454,4.0762,7.6887,7.1415,4.4838.1747-.1788.315-.3376.4171-.4248.0909-.0789.1517-.0929.1821-.0308.0228.0459.0284.1328.0172.26-.4792,3.6926-6.5195,15.4557,2.21,16.5849,3.0685.1386,3.9265-3.8223,4.0112-6.3874.6038-10.3517-2.5299-20.1366-8.0205-27.7054-2.2532-3.3465-5.3141-3.2509-9.3035-3.0681-2.9711.0736-6.7605.1678-10.3964.2582-5.7616.4476-11.2693-.7266-15.9053,1.971-14.3686,8.5074-13.1205,27.3866-13.2303,40.5206.0161,1.7346-.7053,6.4785-2.964,4.1983-4.1419-4.9917,3.7354-23.9802-6.5258-38.03-2.302-3.1469-5.8098-6.7506-9.08-8.2094l-.1247-.0499Z"/>
      <path class="d" d="M509.4536,246.7116c1.7126-.4317,3.0207-2.0396,4.1767-3.4342,11.9465-15.2203,25.9063-37.769,45.1709-25.1784,3.9242,1.7887.8972-2.0988-.2942-3.3101-13.6049-14.1875-39.8389,7.7446-51.1705,21.3448-1.7689,2.2655-4.8742,3.8512-4.6737,6.764.3507,2.2528,4.1115,4.4401,6.6344,3.8514l.1564-.0375Z"/>
      <path class="d" d="M147.8721,873.0178c-1.4081,2.5101.3863,8.108-.5394,11.3888-.723,1.7326-1.6358-.3581-2.8232-1.7867-15.3816-25.4558-36.427-42.6883-63.9973-24.084-1.7233,1.2764-2.7432,2.557-2.7111,3.5714.0718,1.4866,2.396,2.2365,3.97,2.3528,14.4183,1.6279,31.2313-10.2386,43.7167.8362,23.5109,21.7332-5.4448,52.6566-32.8526,50.2984-108.0455-13.0997-83.2121-164.6347,8.7979-200.1985,5.8979-1.9698,10.444-5.9351,14.5135-10.4306,13.7404-13.7932,36.3058-4.5239,53.2376.413,6.9951.1454,14.963.7896,21.8734-.6519,4.1372-1.256,7.5437-4.447,11.9676-5.344,5.5157-2.0083,12.0738,2.1748,17.2151-.3117,2.6568-2.7637,1.531-7.6286,1.2011-11.107-.8373-4.5877-3.2037-5.0375-8.7934-5.8869-4.6651-.7234-16.2231-2.0106-4.0889-4.1265,39.6764-7.539,75.9456-26.6874,106.3077-54.0881,1.1426.2031-1.3216,4.468-1.7654,5.8189-16.3003,36.4749-7.8016,72.0684,2.8499,103.6458.4229,1.8612,1.4797,3.4526-.0375,4.4403-12.5029.677,7.0278,14.9149-20.2817,29.5904-1.7091,1.4751-4.6584,2.3558-3.7105,4.6018,5.3321,6.9789,17.5325,19.6265,22.9929,26.0224,2.6523,3.7832,8.5943,2.5547,12.1632,3.26,11.1292,6.3228,28.12,50.9387,8.5984,84.2468-4.3668,8.2277-14.241,11.5822-17.6783,19.9282-1.3473,3.6553-1.5613,8.29,2.3473,9.1742,33.5774-10.2874,48.2231-51.2624,41.8564-82.6296-.4056-2.182-.6881-4.7526.2157-6.644,2.5315-3.8292,1.3607-7.1861-1.0351-11.1407-2.7062-6.3649-6.6279-11.4323-11.0844-16.7158-4.817-6.5373,5.7915-10.0696,3.763-16.4216-.0319-.9107-.9018-2.8408-.2042-3.5704,2.2312-1.7607,10.0035,5.1524,10.3074.8574-1.3725-5.7837-2.8588-14.4509-10.4885-9.1126-6.3943,3.4234-13.8618,5.6168-20.8747,7.3977-7.153,2.1197-4.3225-3.4408-7.7755-6.9784-5.1739-3.9137-3.3654-4.8751,1.4846-9.4124,4.5566-4.3151,12.0878-12.8442,18.8232-9.6044,1.3426,1.3895-.2878,3.7771.6271,5.2376.8123,1.0185,4.4455.0178,7.0185.3258,4.0416-.4649,7.9966,5.7886,10.7801,1.112,1.9771-3.5322.4702-7.4472-2.2252-10.2082-5.5328-5.9408-12.7181-15.5999-18.523-20.6794-7.9631-1.5683-9.8061,18.8883-15.1581,18.6302-2.0648.2823-5.5911-.8932-5.3246-3.4227,2.1346-4.4326,6.5581-6.3676,3.8016-12.9617-8.959-23.8381-14.8095-49.7445-7.6147-73.093,2.0813-8.0534,6.2514-.8915,8.1457-9.3183,2.6438-14.0507,11.6968-10.772,18.2112-19.8645,2.1992-4.3982,12.1048-15.044,10.7712-19.2998-1.5612-3.2821-8.3123-4.8549-10.8852-1.0889-4.4161,4.2472-7.6327,21.7879-12.5603,22.373-6.0134.0176-19.8059-17.3068-11.1297-20.4244,1.9012.0802,4.3617,1.3855,6.545.6206,5.4282-3.0989,7.6781-9.7561,14.4395-11.0004,3.1244-.9752,6.7906-1.4333,9.0621-4.0065,2.1666-2.4564,1.6549-6.3314-.774-6.6947-2.2554-1.3421-12.7207,7.1385-11.1842,2.1524,35.91-67.5583,34.4776-172.6677-28.7951-209.707-1.2294-1.3446-2.2787-2.862-1.5395-4.5984,1.4729-3.3056,7.9699-3.5615,7.9725-8.0774-.9666-8.5059-14.0343-21.8534-22.1449-23.535-9.4614-1.4185-21.9003,14.5789-29.1336,2.0881-2.4239-5.4187-.0071-12.7615-5.9993-16.1403-49.2235-35.42-142.5376-56.025-184.0249-100.3958-39.1283-49.2823-19.3434-143.511,51.7805-130.3898,21.8841,2.1543,32.2035,25.3603,15.037,40.1309-5.4236,8.1889-45.3272-.6288-33.6984,12.1203,23.9243,21.7366,61.7053.4065,60.3624-29.5433-.3268-10.1356-3.1504-7.7384-7.7642.976-.8432,1.5721-3.0376,5.6012-3.5427,2.0263-.7851-3.9805-1.038-14.324-2.5635-19.7477-.3487-2.5732-4.4811-3.898-3.5113-6.0991.6862-.7596,2.2036-1.227,2.9188-2.0075,1.884-2.193-1.12-5.3839-3.7097-6.539-2.5452-1.014-5.694.3506-9.5587.5445C33.1281,56.7839,4.0318,166.631,64.8518,239.3953c27.0006,36.2371,126.1634,71.431,165.5957,93.5539,1.3892.8815.2227.8695-2.7811.4991-58.0831-9.9064-121.0188,74.5398-56.7932,101.7521,13.6034,4.5989,30.3513.8335,37.7711-12.1001,3.6534-6.4401,14.498-23.3337,13.2575-30.2465-6.6979-5.5106-13.3411,9.2883-17.0129,14.5025-4.6095,7.993-12.6331,14.6022-22.314,14.7625-33.1858,1.7163-19.5586-48.9789,4.7142-58.604,11.5911-5.6782,23.5173-10.0675,36.4752-10.3817,26.8767-.1459,33.5271,24.3373,48.1329,37.5507,2.6485,2.396,5.5586,4.4215,8.8984,5.8623,43.5205,14.6603,40.7073,79.8968-.0124,99.4464-15.3971,7.0874,4.4583,8.3798,11.0329,6.2683,3.3222-.6169,10.2579-3.3409,7.8083-1.3778-3.7829,2.678-7.835,5.2016-11.8257,7.8867-2.9438,2.179-10.3992,6.1719-11.3345,8.1309,36.7975-5.692,57.8109-42.6008,53.3797-80.9919-.1233-1.1959-.2419-2.3259-.3003-3.2542-.1435-2.1061.0666-3.0752.7667-2.5325,17.5973,28.4602,13.1499,66.9164,16.677,99.1205-.3758,3-2.1095,5.3879-3.8232,7.8146-6.6614,9.4206-11.2148,27.3403-16.3616,37.2558-2.2513,6.2083-9.3115,2.7649-13.1395,7.0693-3.4265,4.039-8.0632,10.5592-11.1645,14.5832-5.0791,5.4466-2.6879,13.7289-4.3468,20.3917-2.0356,5.3748-8.3066,8.3856-12.1367,12.5433-3.3394,2.7404-2.0497,5.1702-.5623,8.382.4523,1.6392-.9078,2.6752-2.4073,2.4563-2.9531-.2533-4.8845-3.65-8.6091-3.8558-4.5048-.2335-8.1489,3.4719-11.7174,5.8055-3.532,4.0963-24.3673,6.3881-20.3209,12.6527,3.8366,5.5476,6.5061,8.532-2.6138,11.4416-2.1572.7026-15.1793,4.8444-15.0103,2.234.5057-1.5712,5.2571-3.7155,4.7574-5.4512-6.0596-1.6975-14.1868-1.2067-20.7444-2.064-16.4007-.9354-18.4126-12.6294-41.334-7.1107-7.5625,2.1275-13.9351,7.391-21.9051,4.8474-64.642-13.9753-110.6596-102.0272-53.0057-144.1591,17.3646-12.1884,49.214-17.6951,53.6542,10.1261,4.3843,18.1846,16.1208,16.2211-7.5432,29.17-4.9433,3.3673-10.5813,2.0639-15.942.794-9.2576-.3227-7.9878,5.5723.0809,5.9165,28.6762,3.8976,50.191-28.0084,34.1304-50.9843-1.4566-1.3427-3.1469-.9198-4.7396-.2854-5.9857,1.1516-10.4599-17.1057-23.1963-21.9051-7.0455-3.253-14.6346-3.5682-22.0126-1.2674-110.7036,33.9515-48.4692,184.4605,49.1575,193.2709.4072.275-1.2542.549-3.945.916-112.8247,13.2335-205.1417,143.8612-115.8741,234.1004,39.3093,38.1137,134.1388,17.0268,111.5935-40.8879l-.0337-.0252ZM214.2275,349.8327c-32.4408,1.6571-25.9721,15.0854-44.8415,20.1718-1.1578.1487-1.8358-.1027-1.816-.7609,13.303-19.0078,40.4827-27.7458,63.2721-22.9928.9289.213,5.8284,1.0865,3.7839,1.6598-4.4736.7071-14.6412,1.4083-20.2369,1.9102l-.1617.0119Z"/>
      <path class="d" d="M583.8913,960.1336c-17.0844-34.6345-68.4766-10.4077-67.7168,25.836.2946,1.9794-.2756,6.763,1.8152,6.6289,1.877-1.39,7.0738-8.8535,9.4922-12.0187,5.3763-6.5873,9.7042-15.1934,16.7876-18.9842,11.363-6.1763,25.8195.5678,30.925,12.1547,3.6613,8.321,1.8171,16.4651-.8332,24.9286-14.2168,43.8671-61.2509,45.5973-90.8197,34.1459-6.6738-2.0089-6.4436-6.4287-11.073-11.5755-22.5362-15.77-43.8653-38.5367-46.3627-67.8141,1.0749-4.7926,4.3408-10.3528,4.775-15.8544.9048-5.613,1.2011-11.7282,1.4323-16.6202.4387-4.3625-1.238-7.9072-3.7697-11.1726-5.7738-8.0545.3186-17.8417,2.123-33.737.5005-4.7195.6274-10.1648,4.5449-13.3118,14.7698-10.5296,5.4662-22.1197,12.2117-30.4729,3.2292-4.0978,9.215-11.4522,12.2747-15.3656.7498-1.0741,1.7929-2.3122,1.0833-3.5289-1.9862-2.1358-6.3737-2.2172-9.4322-1.855-11.5141,2.8743-7.9102,22.537-19.4753,31.1679-9.5209,6.3959-.3913,13.5723-11.0892,18.7251-12.2408,7.12-5.1625,23.6221-6.6346,37.2247-.3875,2.9774-1.6436,9.851-4.0562,6.9305-4.8774-11.3098-10.3402-28.338-11.8306-39.7927-.7488-.4011-1.838,8.8096-3.777,4.0567-5.3764-12.4505-19.2811-49.7142-24.4359-43.4897-.9184,1.2072-1.6279,4.0056-1.4078,7.1586,6.0038,26.0001,30.6241,37.2686,18.7403,66.5156-1.7484,5.2109-4.5296,10.012-5.8415,15.192-1.4112,6.3276-2.2347,15.7132-1.7773,22.2522,7.4844,41.4356-26.7187,77.4636-57.7908,102.149-11.495,10.5944-25.1281,18.8045-40.6714,22.0172-76.4527,18.6135-176.0102-55.7268-95.8036-111.7863,2.8059-1.3419,5.9383-1.6055,9.0129-1.3954,31.4942.1955,18.3909,30.531,12.9967,55.9908-.3248,3.7431,1.6359,2.6715,3.7565.5748,21.7985-21.4243,24.4201-59.1304-4.6594-72.6947-19.082-10.0146-45.1414.7848-53.6173,21.3581-74.6789,160.8991,216.9531,180.8373,251.0591-3.2421.6175-.1908,1.2576,1.7904,1.9981,4.7986,30.0015,134.7202,222.4157,117.5921,177.9461,5.1097l-.0995-.2038Z"/>
      <path class="d" d="M535.5432,700.9238c1.602.047,2.1461,8.0008,3.6277,6.4236,28.3412-99.3089-94.5648-190.3984-180.7232-132.0476-6.3247,3.7974-5.5026,7.8449,2.1472,8.2511,7.8897.1186,12.8259-7.8332,20.4037-9.0123,11.5962-2.6252,25.8222-8.2967,36.8263-5.6288,4.3641,1.4285,8.176,5.3996,12.7715,6.4052,5.1136,1.2953,10.6989-1.6157,15.7452-.7765,4.613.7293,8.3432,3.6415,12.3038,6.0351,12.6537,7.8967,24.7019,15.767,35.3404,24.9449,1.5957,1.4469,3.5353,2.1985,5.5059,2.4134,3.9065.6986,1.3711,8.0931,5.0785,9.9689,1.9613,1.1715,4.8352.7944,6.2472,2.4309.5906.645.8959,1.503,1.0843,2.3737.9572,3.6894-.0021,8.926,2.6037,11.9043,2.2548,2.1868,7.8537,2.236,8.1489,6.4337.4321,3.1621-1.1801,8.0657-1.2609,11.1024.254,4.7113,9.6196-1.9182,7.7957,5.8359-1.6483,9.3418-6.7909,22.2407-5.3109,31.1305,1.0332,3.224,4.9112,4.8041,6.6901,7.7026.5228.8028.9099,1.7833,1.1449,2.6282.3583,1.3618.5933,2.3022,1.3242,2.2389.8472-.0439,1.5637-.9426,2.4317-.7777l.0741.0196Z"/>
      <path class="d" d="M275.7105,917.22c12.0441,5.5131,26.5925,8.3824,38.1465,1.7796,1.8143-1.397.4633-2.2269-1.3346-2.7289-14.3064-3.1145-32.3659-2.7404-41.6982-13.303-6.5956-7.5311,5.9171-.6609,8.3654-.0344,2.3426.8624,1.6825-.0215-.0857-1.9351-23.2012-23.1803,3.0572-36.1846,26.6401-49.298,5.6751-3.1756,3.319-5.4656-1.9193-5.7717-7.2394-.3235-13.3909,3.3833-20.2658,5.4807-32.3062,8.9777-38.1488,52.4201-8.0474,65.7157l.199.0952Z"/>
      <path class="d" d="M247.3381,468.5305c6.6463-4.4556,18.3942-10.5713,24.8984-14.4916,1.4746-.8429,2.7174-1.8727,2.8107-3.6851.1255-1.8772-.4686-4.1375-2.0803-5.2782-1.8743-1.3359-4.8562-.1318-7.9593.7129-11.2051,3.3251-23.7653,6.1752-31.8445,15.224-17.0506,18.903-5.5359,54.5392,18.4924,58.8305,1.5546.2325,4.1286.6298,3.596-.7376-.4124-.8955-2.6524-2.4799-3.3403-4.1391-.6112-1.2988-.6451-2.703-.8376-4.1019-.19-1.921-1.1572-3.8645-2.3109-5.4962-7.6504-11.0553-14.6424-27.1092-1.5511-36.7407l.1265-.0969Z"/>
      <path class="d" d="M263.1609,743.8988c.3843-.1655-.4701-.4384-2.3953-.8605-3.9818-.8516-9.2862-1.9338-13.2071-2.7341-4.9122-1.2149-8.812-.1017-13.2106,1.7367-9.4894,3.6398-19.111,7.3885-26.5439,12.7171-4.6507,3.3008-8.4857,8.3588-14.0259,10.2522-3.7403,1.4464-8.0263.4679-11.2493,2.5545-1.2433.816-2.3579,2.1769-1.9012,3.6831.3799,1.3065,1.9408,1.9942,3.1407,3.1834,2.6998,2.5347,1.9044,6.5094,1.475,9.975-3.6282,27.3129,9.7194,39.4732,38.4102,38.9005,3.5018-.0736,7.8762-.3851,10.34-2.4908,6.9193-7.3216,10.8757-27.947,8.0297-34.0245-1.4907-3.1255-6.0867-.9361-7.2468,2.4168-1.2165,3.4172.2964,7.0872,1.22,10.416.5519,1.8745.7555,2.8616.4213,2.6237-2.9505-3.0755-5.2274.3305-7.0431,3.1401-34.372,54.679-79.027-58.647,33.7463-61.4729l.0398-.0165Z"/>
      <path class="d" d="M638.9312,837.929c-1.7125.4317-3.0206,2.0397-4.1766,3.4342-11.9464,15.2205-25.9064,37.7695-45.1711,25.1784-3.9243-1.7888-.8973,2.0987.2941,3.31,13.6049,14.1874,39.8387-7.7443,51.1704-21.3443,1.7689-2.2656,4.8742-3.8515,4.6737-6.7643-.3507-2.2529-4.1114-4.4401-6.6343-3.8514l-.1564.0375Z"/>
      <path class="d" d="M1911.8097,772.6466c-26.8119-52.8377-79.0406-81.1781-139.1752-92.7359-2.2463-.4992-3.3248-.9005-2.6614-1.2457,97.1701-9.1459,159.4786-158.8237,48.863-192.9125-32.0721-8.579-35.6399,22.5137-45.0149,23.1589-3.5921-1.9803-6.3459,1.0784-7.644,4.669-11.561,25.8089,16.4292,55.8116,43.1704,44.2055,1.15-1.5417-.7234-2.8355-2.158-3.2632-3.707-1.3287-7.6409.7259-11.3249,1.0467-7.41.2896-22.7219-8.8704-23.0412-14.6268-.1008-2.8053,3.2458-6.2224,4.6013-9.4468,3.9476-43.1279,57.0985-29.2097,74.0708,2.2461,25.9877,51.5709-17.4418,111.4135-71.5336,124.3432-7.7111,2.2881-13.8197-2.6722-21.0854-4.8143-22.5455-5.6776-24.7317,5.4875-40.9458,6.9376-6.7542.8801-15.1413.3937-21.415,2.111-.4885,1.7577,4.1049,3.7813,4.7137,5.3724.817,3.3789-21.8181-3.3559-21.1074-6.1269-1.0401-3.9881,6.4072-7.335,3.2735-11.1219-5.9811-4.1071-14.534-4.7303-20.1659-9.0648-8.3545-6.3244-10.6611-7.6729-19.4212-1.9532-4.1521.9511-3.4317-2.8909-1.7794-5.3048.983-2.0379-.4179-3.9815-1.8919-5.3963-3.8253-4.1563-10.0738-7.1538-12.1154-12.5176-1.6509-6.6529.7278-14.9126-4.339-20.3499-3.4546-4.336-8.0004-11.2931-12.0296-15.3893-2.8103-2.4566-6.1108-1.1166-9.0224-2.6318-9.2194-9.4195-11.1443-30.0599-19.5203-40.7329-3.4184-4.0626-4.6978-8.9522-3.644-14.2195,3.4447-28.6492.2747-61.8334,13.652-88.1269.828-1.8945,3.9418-7.6404,3.585-2.1776-5.7107,39.1302,14.595,77.9428,52.5969,84.4791,1.0314-.0392.1132-.8998-2.3551-2.541-6.0173-4.4411-15.711-9.4824-20.9032-14.3172,2.8676.7797,12.5174,3.5316,17.154,3.0832,3.578-.3389,8.7158-.5519,7.9259-3.3178-39.9474-18.3369-51.9055-72.3529-15.7183-99.2316,6.8672-3.2992,13.5273-4.3001,18.8183-9.7601,21.5775-24.339,30.4982-48.3136,71.6056-32.675,46.6265,11.4041,51.1773,82.2267,4.3318,59.6273-8.5934-5.9054-11.8059-17.895-19.0475-24.1342-18.0547-10.1414,3.7307,25.5566,6.2413,29.5343,4.8322,7.8839,12.935,13.0972,22.3502,13.7612,6.0364.5234,12.2375-.2662,17.841-2.6074,62.1304-31.32-6.0874-111.8763-62.4083-100.7262,38.0854-20.4988,94.4436-42.6961,133.487-66.539,88.3662-46.2682,87.846-211.5717-32.8773-177.8617-9.9852,4.1379-15.8488-.9134-22.359,1.7619-1.571,1.0042-2.4317,2.5916-2.1394,3.8689.334,1.7944,2.2089,2.6699,3.0059,4.1838.4504.9277-.4326,1.7089-1.6033,2.829-1.6828,1.5348-2.4728,3.8742-2.7714,6.3159-1.1167,6.2321-.6569,14.0575-2.4974,18.0058-3.9536-2.7096-9.3734-19.7085-10.5535-5.8705-2.3389,29.5428,33.0069,51.5904,58.1379,32.6055,7.1997-5.0792,4.4819-9.4028-5.0415-9.3797-7.3823-.4474-15.4044.54-21.9019-1.9013-14.5157-5.2594-17.9619-27.596-4.9988-36.6235,18.7621-11.1376,49.8539-7.4925,66.2176,6.976,41.8424,36.5727,15.1189,130.7822-41.9766,149.5103-15.8267,5.1121-24.1738,10.697-42.831,18.7886-34.9286,15.9692-83.8157,37.9246-100.2376,50.404-3.5692,3.1778-1.8482,7.7685-2.9661,12.3935-1.1292,6.1961-8.3367,7.1117-13.4569,5.7437-10.076-2.4465-12.8602-8.9676-20.7061-4.3137-6.0553,3.8652-11.2555,9.4484-15.3256,15.3041-9.2128,13.2363,16.9244,12.892-1.5697,23.7618-58.0336,37.7424-57.7316,140.4017-23.327,205.0577,1.5561,5.1885-8.6385-3.2885-11.0845-1.9953-2.4587.3435-2.9652,4.2125-.7988,6.6646,3.3667,3.6377,9.1638,3.1741,13.1498,5.7249,5.2598,2.6781,8.016,11.7247,15.0176,8.7851,12.5067-1.4864-3.4564,22.6776-10.2659,19.9691-5.0389-4.396-6.8068-16.5988-11.5463-22.0367-2.6506-3.9299-10.15-2.1778-11.0909,1.7392-.265,2.0514,1.2551,3.9383,2.3189,5.6589,3.4278,4.7911,7.0348,11.2745,10.8594,15.6614,5.2506,4.5608,13.5808,6.0093,15.0408,14.1369,2.8595,13.0835,6.3494,3.2614,9.0529,12.243,8.0983,24.6633-.3731,51.6498-8.4091,76.734-.9674,4.4491,6.2219,7.3124,4.1496,10.8114-6.9084,5.3088-8.5021-1.6525-12.1729-9.6755-1.8752-2.5643-3.8528-8.651-7.8337-7.1816-5.7788,5.1418-12.9756,14.7279-18.4749,20.6524-2.6591,2.7093-4.2354,6.7299-2.2189,10.1897,2.7713,4.9587,7.3618-2.2684,11.6997-1.1823,2.9711-.2045,5.9212,1.1809,6.3689-1.0203-.2298-2.0149-.8108-5.1799,2.1441-5.2361,6.5833-.2605,12.6208,5.8943,16.9664,10.3595,2.9302,3.3892,5.1566,3.3397,4.4398,6.3881-1.0458,2.0035-3.7078,2.8645-4.4039,5.1616-.802,2.7411-1.0814,6.0566-4.6204,5.1441-7.6136-1.6546-15.603-4.0928-22.5214-7.7152-2.0511-1.1634-4.966-2.6576-6.5032-.9873-2.1237,2.3829-3.4271,6.8913-3.9663,10.0728-.071.786.2412,1.3571,1.01,1.3985,2.2327.1512,6.9524-3.2974,9.2186-2.185.8382,1.8008-.8019,4.3434-.2989,6.3445.3241,3.2549,4.0458,5.0309,4.9039,8.329.9494,3.1134-1.3426,5.9983-3.3787,8.1924-4.9554,5.2551-7.5376,11.3697-10.6639,17.7053-2.0741,4.5808,1.8659,6.2374,1.551,10.5273-6.6104,31.6668,4.3898,66.5325,34.6122,83.721,8.1638,5.1711,12.7162-.6894,8.3256-8.906-3.0656-5.8317-9.2158-8.3958-13.5753-13.6286-24.0811-29.1028-6.4557-83.3469,5.2375-88.684,3.5835-.7417,9.537.672,12.2066-3.1948,5.471-6.4226,17.6284-19.0354,22.9513-25.9688.9216-2.1505-1.96-3.2649-3.7042-4.5921-26.7911-14.0807-8.0917-28.8257-20.2128-29.5436-1.5598-.9084-.4342-2.6695-.0542-4.433,10.6179-31.4756,19.0916-67.0458,2.8425-103.3984-.6514-1.1714-2.8059-5.8835-1.7237-5.8146,31.5005,29.3993,70.5961,47.0044,111.6236,55.6851-4.1145,3.3749-15.2661.9149-17.6755,5.8719-1.0007,2.8365-2.9508,11.8877,1.3351,14.007,2.1835.742,4.871.1132,7.1946-.2434,12.5693-2.0616,21.4682,7.5377,35.226,6.6371,6.5029.3511,11.5189-1.1726,17.2817-3.4531,14.4944-5.6484,33.0236-8.0521,43.6307,2.519,4.0087,4.4526,8.5761,8.3671,14.3948,10.3113,91.391,35.3786,116.5168,185.4667,9.9909,199.7123-29.0222,3.015-58.1233-29.3338-33.2012-50.7926,11.0753-8.7328,25.0973-.9788,37.4291-.0848,8.9577.8098,13.5715-2.5856,3.579-7.9293-27.4833-15.4647-45.4854,1.8011-60.6027,25.6632-1.1169,1.8502-2.667,3.9467-3.1269,1.6734-.4688-3.1508.3634-7.7185-.035-10.8685-.2117-.0281-.2524.3668-.3705.8254-15.7571,119.1945,206.5973,49.5048,133.8281-100.4315l-.0805-.1652ZM1758.6988,370.1061c-.3768.3324-1.3835.2541-2.6892-.1047-16.6189-4.876-11.2557-13.0716-29.9483-17.5429-10.2619-2.413-18.1332-2.9961-29.3965-3.8164-1.4977-.0791-5.0699-.3974-5.1979-.8116-.2289-.2611.3939-.5799,1.6096-.9045,23.2985-5.4101,47.5602,2.6017,63.6364,19.5285.8338.8671,2.653,2.8331,2.0348,3.6046l-.0488.047Z"/>
      <path class="d" d="M1714.5939,934.4369c-25.3281,15.7184-19.0098,53.7912,2.7659,71.4502,1.4689.4213,1.4255-.9488,1.2827-2.7284-3.8149-20.8144-15.7368-46.0247,1.6161-53.2311,5.858-2.1691,14.1772-3.6306,20.4246-.8936,12.9703,7.4841,24.106,22.9733,27.462,33.4981,10.075,31.3066-16.1881,55.8921-43.5613,68.446-38.9245,18.0231-90.1115,17.9031-120.5584-12.6259-4.3174-3.5205-8.7135-7.1157-13.089-11.0433-27.358-24.0037-50.9034-56.1125-44.2857-91.9721.1794-3.3941-.0314-7.182-.4063-11.19-.486-4.6201-.8582-8.2704-2.1781-12.1626-16.7775-35.0301-4.5025-41.8521,11.5883-71.3918,2.1125-4.0199,2.9918-11.6423.6054-14.8457-5.1641-6.174-19.0088,31.0652-24.3866,43.4344-1.9268,4.5786-2.9914-4.0155-3.7145-4.0853-1.2958,10.2604-6.6403,26.5073-10.6495,37.0442-2.3596,7.4256-4.7636,1.058-5.2912-4.2203-1.4703-13.5736,5.5998-30.0485-6.6294-37.1498-1.7827-1.1343-3.8188-2.1805-4.8937-3.9761-3.0496-8.0827,1.8363-8.5696-7.4343-15.828-11.0765-9.4011-6.1884-30.5501-21.4238-30.1534-3.7219.2502-8.8514,1.3813-5.0945,5.5806,3.2817,4.2286,9.1645,11.3293,12.6651,15.8763,2.6656,3.1893,2.3037,6.7993,2.3191,10.6775.0869,6.5763,2.2791,13.3435,6.8041,17.0309,5.7872,3.4408,6.8462,9.1103,7.1896,15.445,2.0003,17.1107,8.5593,26.3112.8784,35.4289-1.7487,2.4965-2.632,4.9642-2.5551,8.2297.2411,6.3745.6364,15.1924,2.3601,22.196,1.6835,6.4656,5.5834,11.2815,3.3867,17.7747-6.702,26.1729-23.3956,46.1229-45.0036,60.4454-4.0291,3.1247-4.4614,8.3427-8.394,10.611-23.4732,13.0798-79.7023,12.7464-93.1689-29.2817-2.5325-7.3991-5.0347-15.2151-3.5036-22.8696,2.5677-14.2284,19.1488-24.1128,32.1513-17.3831,5.0393,2.4699,7.6958,6.5408,11.003,10.9581,4.1661,5.5632,10.4837,14.0519,13.7083,18.3253,5.3467,7.5856,2.3925-13.7646,1.6751-15.7238-10.014-40.9799-63.3896-40.5279-72.0747-1.7864-1.3906,4.9001-1.9646,10.5161-1.3065,15.7146,18.1468,108.7031,167.5829,63.2767,186.0638-35.106,1.0525-5.5323,1.7583-4.8178,3.0007.8758,25.5112,124.2337,168.7012,152.3368,231.7026,105.6284,30.5511-21.0212,41.2126-64.2706,14.5327-112.3114-11.6423-18.5617-36.9706-25.6883-55.4134-12.8258l-.1696.1144Z"/>
      <path class="d" d="M1274.0515,918.3532c-1.6461,2.4618.7409,6.8483.9587,9.6988,3.2347,10.0931-2.6213,22.7312-12.7095,25.2275-4.9913.1584-14.1386-3.7158-18.7934-.7313-.5469.3912-.4277.8749.3107,1.3791,1.3401,1.4813,5.9126,1.2396,5.9002,3.325-.8506.8935-6.1238,1.5535-6.7243,2.4279.4881,2.0822,4.721,1.924,5.9384,3.6745-1.3232,2.7712-8.6457.6548-11.8723.8235-10.5111.1129-18.0465-8.2267-26.2949-13.6346-4.4399-3.6541-3.9626-8.2456-5.7833-12.9851-1.2435-3.9545-5.0285-9.1222-5.497-12.5736,6.5809,4.9641,10.7551,14.6559,18.81,18.2449,1.8611.9226,4.5035,2.1732,6.1512,1.1028.5017-1.1253-.7867-2.3841-2.3397-4.1903-48.0714-47.6952-16.4182-68.5009,14.9517-104.6142,3.3313-6.2069,3.9405-14.268,10.386-19.2066,30.128-34.2472,74.4157,2.3017,70.688-17.8657-4.1373-7.9671-42.7383-8.4253-23.034-14.3744,2.0268-.8277,8.144-2.8172,2.5223-2.3724-5.84.4116-19.6515,1.5238-26.1672,1.973-.8398.0596-3.8092.4553-3.2277-.7602,11.254-6.9662,32.9135-23.3775,46.0348-22.004,8.5085,4.916,17.4242-.5941,26.2545,1.4105,17.7774,3.6654,42.8336,10.6434,62.2199,12.0622.1467.0033.277.0096.3903.0184,1.0013.0652.4133.3668.0649,1.0866-.8312,3.7546,4.6292,3.6969,7.7025,6.5713,7.4967,10.0006,17.4293,18.6548,29.3068,23.3756,10.6824,3.7084,38.3823.333,20.4066-15.3565-.8555-1.7383,1.8383-1.0357,2.8946-.8898,5.8515.6935,16.7237,4.2163,21.652,3.8212-1.0184-3.2138-7.4106-5.3494-7.6501-8.8955.3184-2.1995,10.3319-2.7522,5.2561-5.7372-8.3478-2.7972-12.9846-9.7369-17.4667-16.6335-6.3637-5.9118-16.0839-12.6139-24.4532-11.6894-12.0313,2.6689,10.2673,11.9026,13.2401,15.25,7.1355,6.0556-4.6357,15.0162-9.7152,18.2043-2.9896,1.1813-2.9225-6.886-3.7409-9.0412-.4601-4.0497-4.5463-5.9482-6.7015-7.5784-1.8002-2.04-.3488-5.4488-2.6432-7.3067-4.7134-3.5774-12.2461-6.9938-17.3317-9.526-.5172-.1559-.8753-.1958-.6875.3569,2.1128,4.0913,7.3543,8.1351,8.4114,12.3191-.3211,2.3809-4.1328,1.5035-5.9284,1.8703-11.4627,1.9664-21.7606-1.6841-32.3567-5.4408-59.0959-14.0135-121.0591,1.1349-168.5638,37.2189-14.7843,6.627-43.2925,27.0729-18.1176,39.7886,4.5234,2.3889-2.5125,15.0605-4.2926,9.74-9.6204-37.5398-47.3725,74.2814-55.9286,95.6913-23.1511,65.5783-38.2385,116.2823-110.2317,115.6428-75.2204-11.3281-30.1371-27.9424-44.546-77.8697-5.1834-9.8245.4734-9.688,7.6247-5.9533,2.484,3.6352,6.5078,9.238,7.0834,12.8453-1.4474,1.6056-4.3143,2.8612-2.5528,5.5354,2.3424,3.0251,6.8226,5.3606,8.4188,9.1264,1.7381,5.0615,4.1982,20.3163,11.4053,11.7906,4.8705-7.5952,3.5329-17.8913,15.8053-14.8658,93.2137,20.3406,106.5844-95.3994,54.332-153.2699-28.9483-38.427-114.8858-57.6004-92.3094-64.3716,15.3605-9.4425,52.134-16.8857,52.3932-37.6553.4716-4.137,3.7101-6.8854,7.7946-7.2211,11.7851-1.2013,20.1438,11.8457,29.0752,2.8248,5.9348-5.451,17.102-13.3945,13.6086-22.4189-1.9769-3.5824-7.6413-5.4255-5.3736-9.5715,63.2501-38.8049,65.6235-141.487,29.5357-210.3443.092-4.4939,8.0068,3.2681,10.951,1.7031,3.1025-.9165,2.3612-4.9064-.3597-7.1188-10.2819-4.6826-12.9082-4.4514-21.0684-13.1724-2.872-2.2611-7.1139,1.0243-9.551-1.5301-2.8227-6.9908,5.0416-15.3408,10.8591-18.6058,4.7231-1.6559,5.7607,3.1865,7.8782,8.0244,2.4702,7.3355,9.7534,23.1224,17.5094,12.088-.3082-6.5849-7.2283-12.3521-10.2037-18.0934-9.8652-11.674-14.6521-5.5192-20.1488-23.7787-3.659-2.7613-5.8456-1.5949-6.9371-7.5496-5.8708-24.5351-2.419-57.811,13.3493-78.7736,4.2035.6686,5.0178,8.2007,9.5479,9.358,2.2098.4023,3.8549-1.7532,5.2804-3.2544,3.9772-4.5633,10.3415-11.878,14.2549-16.3927,3.287-3.1585,5.8085-9.8637.8946-12.4313-2.8213-.3793-12.0544,6.4281-12.6012-1.061,1.9182-11.2023,13.8289-2.8047,14.5578-17.6763-1.3691-5.0484-5.7962-.1745-2.4006-8.9855,4.0864-11.3863,6.4104-23.9413,6.9658-36.5219.3155-1.7238-.0517-4.6139,1.0357-4.9968.7753.1533,1.8936,1.2286,2.8503,1.3657,6.1701,1.0806,17.1549-29.9449,22.1281-41.4111.5693-1.1231.7691-1.9919,1.6941-2.5825,1.2107-.5136,2.1841,3.3639,2.7484,3.9795,2.4295-9.463,6.0375-24.2285,10.2785-34.4048.7511-1.7272,1.2505-3.9825,2.851-4.5727,1.0755-.1524,2.1085,2.12,2.6974,5.3501,2.3816,12.7188-4.5509,28.7,4.7889,36.8291,13.1717,9.1724,2.3904,10.0983,18.9183,27.5447,4.6741,8.2272,5.228,18.5797,10.7877,22.449,2.8646,2.0186,7.9847,2.1556,11.1911.4413,2.3041-1.4541.2479-4.3376-1.0488-5.9356-2.787-3.5484-7.0659-8.7162-9.8295-12.251-6.6965-7.9683-1.518-21.2557-9.7081-28.3568-5.9223-4.2884-7.9932-11.1245-8.4384-18.2344-1.8079-13.7925-6.5907-22.8473-2.6247-30.2757,9.5513-13.4131,1.887-31.9904-1.4916-46.0577,2.8087-28.3052,23.5738-50.4755,45.4644-66.0594,14.4619-22.5807,57.6181-25.1551,86.3088-3.9496,12.0132,10.3667,22.7379,31.6134,18.2644,48.3794-3.8998,12.5106-19.0058,20.5533-30.9546,14.6571-11.4599-6.5643-17.3194-21.0783-26.1669-29.9466-4.2751-1.7475-.9691,16.4744.017,18.8305,14.6482,49.747,85.6876,27.8929,71.2363-24.3415-25.7628-99.3782-166.5633-51.2036-184.9558,42.5106-1.4602,6.7992-2.2856,3.9811-3.5042-.6207-22.5855-90.7883-122.4174-157.385-209.3368-116.4912-5.2777,2.4948-10.3975,2.3788-15.6324-.1437-87.214-42.8968-189.0943,24.1881-211.7237,116.0083-1.2483,5.3829-2.2033,6.4651-3.4922.2367-18.3481-106.608-191.7624-140.9965-185.7343-19.4764,12.3881,52.5371,83.2901,28.3867,72.2495-17.6519-6.6891,6.6337-16.0333,22.6761-23.5858,28.4914-11.0472,8.0849-27.1673,2.1132-32.8527-9.9317-12.9727-53.8592,51.7052-77.0915,89.6453-60.3388,8.3171,1.6378,10.0204,10.7433,16.895,15.2912,23.2011,16.6809,51.3471,47.5466,38.4345,78.3962-7.5679,41.6817,11.5868,14.8774-.2502,64.0724-2.3446,18.769-14.7458,12.7898-14.7551,38.8733-.561,6.2296-19.3548,19.6942-13.7298,23.9623,15.5156,5.7519,15.4843-11.4894,21.715-23.1256,2.2227-4.494,7.402-7.6167,9.3385-11.7536,1.5676-6.3672,3.103-12.4223,9.4789-15.7241,9.1828-7.7933,3.0709-22.9242,4.6956-35.4855.8912-6.3268,3.3766-9.9711,5.6669-2.676,3.9477,10.4138,8.5004,24.461,10.0505,34.7119,1.8821-.6168,2.0611-7.949,4.9981-.5479,5.8871,14.4662,23.6545,58.7715,24.6174,33.6055-5.2483-24.8259-29.8116-36.9819-19.0213-64.7897,1.8271-5.6638,4.8046-11.109,5.1917-17.0268-8.6575-88.3854,86.2866-173.3634,172.9146-141.9041,5.8439,1.9575,7.5129,4.9869,2.7721,9.2847-21.8347,22.3016-30.733,69.0408-16.7724,96.9733,8.2977,19.8328,32.9132,25.5364,52.9889,22.3191,49.1035-12.0829,38.1876-91.3359,11.7437-119.0416-1.6172-2.0507-3.8619-4.1755-1.8641-6.3926,85.7895-37.4909,185.2007,50.8761,175.915,139.6916,12.5809,34.6452,8.2875,41.2275-10.3899,70.8343-.9992,1.66-3.7435,8.5075-4.5574,2.5851-2.313-103.2211-158.7128-123.7968-148.4551-39.7436.5061,2.4749.6417,6.3505,1.7675,7.617.5398-2.6096-.1845-6.5726.1309-9.6487.0989-.6743.0908-2.0464,1.0214-1.7787,12.1845,17.1932,28.8349,40.8778,51.7383,33.3885,9.543-2.2432,17.4632,5.5974,26.702,5.6018,14.5775.1084-.0566-7.6902-4.9514-11.0592-2.3234-1.6027-3.2261-4.2735-5.6872-5.7268-18.5585-5.7121-25.6774-19.9386-12.1845-36.0353,6.0877-7.9224-13.9139,5.3342-4.9639-4.5024,24.2673-24.9157,63.7784,12.3503,70.3333,42.0775,5.4469,19.5142-5.8493,60.4742-21.51,60.6437-8.6126-.3708-20.9022,19.8988-27.6188,25.6374-2.8052,2.9566-3.1907,5.3253.9986,7.9306,44.9297,26.8694-29.1244,44.5529-43.9207,63.1917-14.1412,11.9543-32.4741,3.5454-47.9871-.9577-8.7474-1.6714-20.3191-.4099-28.6128-.5691-18.1447-.2604-35.7992,14.4601-53.2856,4.6316-7.3121-4.1033-11.9662-11.9334-20.1881-14.8609-15.6256-7.494-30.553-16.4577-41.617-29.0299-6.3748-10.9952,9.0292-19.5576,15.7719-24.9205,2.4362-5.8728-6.9423-10.2978-9.7889-15.2099-5.9762-5.3614-10.2077-14.8306-17.8663-16.19-16.1686.6894-26.0489-35.032-24.2324-52.6827,4.0711-31.9918,48.2056-78.4825,73.5586-48.0713,1.8159,3.6335-6.5199-.8884-7.5436-.5853-1.4529.5577.4966,2.0467,1.7584,4.1518,9.6873,12.1648,7.4006,26.1654-6.9142,32.5721-8.2353,3.53-16.426,10.8363-23.2617,15.9741.2359,8.2485,20.6524-1.8391,25.3501-2.2249,26.2012,6.6735,41.7407-5.0986,56.333-28.2049,6.6277-10.8835,3.5775,3.2836,4.4516,7.2589.8944-1.1658.8076-3.192,1.3032-5.3915,4.4005-109.5173-183.9666-43.4214-144.3917,78.3152.4265,5.9705,5.9004,13.6067,4.3723,19.4632-1.3193.7031-3.6328.5301-3.6751,2.5488.7645,15.6439,13.2953,6.5907,14.6844,18.0555-1.4531,8.9824-11.1476-2.2523-14.3626,2.2101-5.3786,8.4581,13.4281,21.6546,17.5124,28.4024,8.6024,10.7635,11.7618-18.1943,18.535-1.0715,9.1071,18.0937,21.2535,68.7905,2.0627,80.6871-5.4791,18.2563-10.1622,12.1236-20.0662,23.648-2.9494,5.7665-10.3077,11.8481-10.2795,18.5422,1.4126,3.6992,8.4115,4.6955,10.9785.8024,4.7297-5.142,6.1201-18.3751,12.052-21.5241,9.0991.5808,23.2564,23.1736,5.2593,19.6842-3.0244.5913-4.9751,4.1407-7.4178,6.4084-3.7279,4.2187-9.8124,4.3266-14.4531,6.9963-7.1046,5.5916-1.3553,10.4799,5.0752,6.055,5.6877-3.0029,5.6299-.9499,2.9418,3.8721-37.3903,71.903-26.5827,167.9482,31.6797,209.8446-.9929,2.6703-5.9071,4.9204-6.5062,8.5614-.0103,9.8632,10.5501,17.7974,18.1372,22.8607,8.004,4.8187,19.7125-10.4687,29.8764-3.6265,1.5423,1.0265,2.5809,2.5794,3.0676,4.4538-.1937,21.8072,35.8056,28.8803,51.8088,38.5432,14.8696,5.6041-17.8958,14.0868-23.3356,18.3844-11.8683,5.6356-24.4082,11.8155-35.4562,18.5109-79.2035,39.9025-94.1128,199.0076,19.5575,179.9213,17.4683-3.9661,11.0886,10.0914,19.6487,18.4803,6.8539,4.3807,7.9898-10.218,10.0064-15.4531,1.3807-3.8615,7.1788-6.743,8.6817-9.9414,1.4241-3.3936-4.2585-3.3816-2.7367-6.3975,2.4099-3.5785,4.6091-8.2451,8.4551-10.6089,3.0896-1.9321,8.7304-2.1323,6.6225,3.259-13.432,26.0315,11.2368,54.1172-4.7035,68.503-39.747,27.4173-101.722,11.1466-122.457-31.8843-10.5652-8.1552-72.2996-219.3959-85.2012-165.3035-2.8474,1.331-5.5513-6.3015-5.1897-8.4612,3.5074-6.4836,14.9183-8.1643,10.9807-18.3345-4.7106-14.4451-22.1981-19.5468-33.2122-27.8104-49.3267-35.7888-116.6207-49.7995-175.5098-29.3852-8.2153,2.5551-17.9871,2.4736-26.0417.1546-.4382-4.0804,5.6768-8.2626,7.59-11.9006.0827-.4338,1.2806-1.4029.4872-1.6144-5.3071,2.3363-13.0587,5.9124-18.2975,10.0968-4.1515,16.1164-6.9377.8668-10.5483,22.0291-.5566,1.8844-1.227,2.219-2.3755,1.3402-1.9704-1.7849-5.9784-3.8644-7.9821-6.2311-11.683-12.0811,8.5369-16.2138,14.8473-23.1825,2.2296-2.3405-.9117-3.6943-3.0511-3.9451-6.909-1.0322-13.8584,3.7226-20.11,7.8701-8.0435,5.2413-9.7879,16.3234-19.7645,19.3893-1.5326.8527-4.8472,1.8763-3.2088,3.4824,1.3777,1.0617,5.6687,1.633,6.2299,3.1363.2702,3.4721-6.1726,5.9714-7.6127,8.8629,5.5215,1.2155,17.1706-3.507,23.4224-3.7651,4.038.1406-3.6743,5.9403-4.2784,8.0567-4.5647,12.7234,27.291,11.5617,33.519,4.5729,4.3764-2.9449,9.3787-5.6154,13.2148-9.1881,4.5655-5.1595,7.4584-11.4107,14.3767-13.6659,1.1679-.6193,2.7981-1.8734,1.8948-3.263-.3494-.7237-.9367-1.0266.0697-1.092,20.8585-1.1505,47.0263-9.6937,67.6454-12.7699,7.1882.8285,13.9617,3.1025,20.8846-.6233,11.4425-2.411,37.0785,15.3371,46.7919,22.2325-7.7119,1.4332-22.3545-1.6491-29.6098-1.5226-5.2208-.5141.1703,1.5672,2.5275,2.3745,17.7563,5.2947-12.0158,6.7055-16.1629,10.2507-13.4882,3.6393-6.1906,14.9952,5.0183,10.0525,25.8963-9.2452,56.7096-1.6903,66.793,25.2478,4.2211,17.0411,34.7599,31.9711,41.1211,56.2342,10.9546,31.6007-43.3118,67.0199-19.8126,57.685,8.091-3.6302,12.2273-13.25,18.8594-18.3055-.732,4.3243-5.5378,10.5273-6.4312,15.5364-.9391,3.7347-1.2892,7.0319-4.7456,9.98-7.3353,4.7021-13.9489,12.0313-22.8175,13.4173-5.5686,1.1114-22.824,1.9035-11.8049-2.4918,6.7949-2.751-3.7789-2.3032-4.745-4.3557.9652-1.6142,4.7303-1.8552,6.1777-3.0764,1.8426-1.8819-2.9467-2.5471-5.8355-2.4537-9.9412,1.1712-17.921,4.8375-23.2497-7.0533-6.8136-8.1013.091-17.2687-1.3569-25.9958-2.6842-.3349-6.7481,8.5488-6.8576,12.3864-1.1876,12.7971,6.2114,25.9059,17.4029,32.2662,36.9698,21.7284,79.4044-17.8366,85.8273-59.6099.5041-5.7104,1.7259-9.3102,3.834-2.0284,32.3766,98.5586,97.107,232.684,211.277,152.2844,116.0386,79.2414,178.689-59.3866,211.7036-157.1363,4.6025,47.5927,65.0765,101.7686,100.4122,52.8835,5.9682-8.4762,7.1882-26.8437-2.2699-31.9517l-.0526.0211ZM980.834,55.2471c3.2938,4.434,5.9847,9.0558,7.723,14.287.9431,3.1758,2.6495,7.5686,1.1684,8.454-.5771.243-1.4064-.1357-1.8834.3331-.5678.6101-.0934,2.7106.0783,3.8194,2.9904,15.2621,2.819,32.2181-7.9168,44.1294-5.827,6.3162-16.2389,12.8367-24.7117,7.0556-19.6047-11.4648-19.2081-34.6759-15.3856-55.0178-.0352-2.2883-2.3389-.5328-2.0236-3.1386,6.3101-23.8068,27.2495-44.3222,42.8217-20.0985l.1296.1762ZM946.5187,714.2576c.0079-.4865.899-.2912,2.3865.1003,2.5469.6532,6.5056,1.6367,8.554,2.1818.7334.2133,1.4288.4566,1.905,1.0568.739.9743,1.0329,2.4411,1.0799,3.6781.298,6.0764-12.0928-1.9053-13.9241-6.9389l-.0014-.0781ZM941.6736,680.9135c21.4675-44.7625,66.2519-.7667,29.2693,34.0151-6.7796,7.2517-9.6983,4.4794-14.8293-1.8751-7.6996-8.7516-16.573-20.0901-14.4921-31.9602l.0521-.1798ZM971.5641,724.0306c-1.6086.2629-3.4598-.8775-4.5376-2.0316-2.8782-3.2626,5.8638-6.1858,11.5321-7.5613.5983-.1443,1.525-.349,1.9724-.2251,1.0735.3867-.844,2.2253-2.1275,3.8047-1.9401,1.9669-4.1903,5.147-6.6694,5.979l-.1699.0343ZM964.0183,724.6639c.9948.1537,2.0923,1.3829,3.0154,1.9486,1.6377,1.1796-.3746,2.3103-1.5047,2.6895-1.5549.5838-4.3424.1201-5.1336-1.6997-.0513-.4394.3674-.8574.9205-1.2614.786-.5023,1.6866-1.5958,2.5428-1.6773l.1596.0002ZM978.5012,732.9772c1.4356-.4088,3.0166-.377,4.5367-.1837,8.9142,1.4416,20.8111,1.9747,30.0602,3.1344,1.7324.4632-.0211.9744-1.0671,1.2866-10.5658,2.6796-21.6874,2.5447-31.8905.1175-2.7537-.4576-6.5132-2.5476-1.8075-4.3055l.1682-.0493ZM1102.4488,504.9107c.8559-.0817,1.7388,1.6116,2.2704,2.541,5.8691,10.8373,11.0249,31.4982,18.9265,40.8373,1.2879,1.6028,2.4727,3.2663,2.8598,5.2807.3849,1.7578.1538,4.0007-.1108,5.9444-4.5711,31.6442.9636,70.6572-18.3125,98.0623-.8938-.0467-.1734-3.8083-.0759-5.0325,3.8272-29.3057-6.1663-56.4628-26.9544-72.7785-2.3523-2.0911-2.6236-4.1497-.6319-6.7058,16.3596-17.124,20.0761-44.4065,21.0828-64.2268.0872-1.2009.1767-3.4957.8986-3.9033l.0475-.0185ZM1073.7469,581.0188c1.1157-.0726,3.0288,1.7523,4.3256,2.4236,1.5625,1.0316,3.2359,2.0508,3.1617,2.1214-.0142.0267-.1465-.0062-.3684-.0801-2.4911-.9416-5.2502-1.8321-7.771-2.654-1.1313-.3767-.3278-1.3799.5359-1.7738l.1162-.0371ZM1122.7748,330.6627c.7486.4224,1.8756,1.8618,2.7188,2.645.9109.9483,1.7599,1.7127,1.6667,2.1635-.0504.314-.3904.4652-.6981.5856-1.7154.5703-3.6462.7321-5.3559.5938-1.4094-.1257-2.8076-.3229-2.4293-1.3658.6491-1.3097,1.8066-2.4317,2.644-3.627.5506-.6585.9655-1.0955,1.3531-1.0221l.1007.027ZM1036.8275,207.0328c.6851,4.1461,2.3473,7.8964,4.9491,11.2174.8743,1.3002,2.8562,3.1192,1.5274,4.6204-.6808.6802-2.24,1.0695-4.2069,1.21-39.4318,2.4615-31.3964-50.536,6.2485-54.6128,4.2801-.4093,8.578-.3966,3.2561,3.5552-10.1571,7.9822-13.724,21.4209-11.808,33.8089l.0339.2008ZM1099.6987,321.1723c-.408-1.3896-.0117-3.7008,1.0498-4.7567,1.2555-1.3571,4.1184-.0372,4.9968-1.5989.6651-2.2639-1.2798-5.3301-.7667-7.697.1344-.3257.1226-.3845.4761-.6479,1.4874-.6038,3.5658.4771,4.7359,1.4643,2.6372,2.4544-1.0089,6.799-4.2203,11.4703-1.1418,2.0768-4.6665,4.6598-6.2303,1.8635l-.0414-.0975ZM1090.1582,364.247c.3608.3157.2084,1.3235-.2283,2.7679-10.2656,29.1167-8.7887,60.4827,4.4417,91.9759.5146,1.2973,2.1112,4.644,1.3287,5.0565-.7194.1441-2.9895-1.9352-3.9976-2.8184-30.2318-27.3068-63.8857-46.6974-103.3677-55.5192-.8358-.8989,3.4288-1.441,4.4083-1.7176,34.9397-6.8515,66.8248-18.8939,93.162-37.6797,1.0863-.7673,3.4553-2.5741,4.21-2.1001l.043.0347ZM822.0733,306.1292c1.0963,1.8513-.986,5.5428-.7186,7.5597.0226.4046.1185.7866.394,1.0498,1.0672.8641,3.771.0872,4.7622,1.2274,2.2702,2.6003,1.3964,7.8751-2.9924,5.4795-.7934-.4937-1.5124-1.4061-2.1018-2.2422-3.1619-4.6699-6.8854-9.1056-4.4398-11.619,1.1718-1.0774,3.5477-2.3404,5.0186-1.5302l.0778.075ZM911.555,188.677c10.591,17.1819-4.2337,39.5137-24.5597,36.8289-1.4774-.1523-3.7901-.679-4.4279-1.7254-.9084-1.3.821-3.2962,1.8119-4.5177,10.9442-12.7729,8.1092-33.9691-3.3849-45.2665-.7499-.7968-2.2992-2.1547-2.3081-2.919-.0004-.4184.5143-.6074,1.4681-.6038,12.623,1.1375,24.9963,6.956,31.2943,18.0157l.1062.1878ZM800.063,335.1929c-.1772-.2937.1225-.7059.7002-1.2914,1.1422-1.0874,2.3673-2.602,3.5411-3.6467.927-.5804,1.4774,1.0014,2.4578,2.1119.4485.8471,2.5975,2.5629,1.4311,3.3973-2.3593.8335-5.8051.7024-8.0685-.4853l-.0618-.0858ZM831.3826,463.8825c-.2577-.2826.0416-1.353.6555-2.9124,13.8398-31.7453,15.8717-64.3121,5.4614-94.0025-.9153-3.1186.0653-3.2746,2.528-1.6082,27.6931,20.6994,62.7126,32.4035,99.1781,40.1818.8302.8407-3.3073,1.4809-4.2963,1.7652-38.4402,8.4104-71.4924,28.4678-101.0331,55.1879-1.2716,1.0825-2.1705,1.6774-2.4625,1.4188l-.0312-.0306ZM819.3238,657.5656c-19.5625-26.9395-13.8306-66.4318-18.4674-97.9323-.8065-4.0869-.1165-7.9088,2.8266-10.8921,8.539-9.543,12.5702-34.2592,20.3019-42.6639,1.5568-1.7303,3.5166-2.7344,3.4066.9449-3.0923,22.9965,3.8502,46.1629,18.6684,63.8043,1.257,1.5222,2.855,3.625,2.5617,5.4315-.1749,1.7287-2.1103,3.3659-3.5891,4.5493-20.6039,16.3683-29.9563,44.8072-25.5676,73.7377.1836,1.6538.1974,2.7704-.1053,2.9967l-.0356.0238ZM855.4035,582.2797c-.1601.3189-.6701.5109-1.0561.631-2.4846.7031-5.2621,1.6719-7.8508,2.6182-.4347.1431-.2415.0006.0127-.1811,2.1547-1.3882,7.7487-6.2828,8.9309-3.1671l-.0366.0989ZM891.2595,715.3614c-15.8418-39.1347-54.4865-25.3715-54.9236-73.5831-.6557-13.6913,5.9355-28.1519,13.2006-39.5547,14.7857-21.2379,28.2219.8749,51.5317-2.5929,2.2798-.2834,5.7275-.5477,6.8237,1.538,2.5119,13.798-19.258,21.5811-29.7364,27.9216-1.1375.6758-2.1587,1.3773-2.9357,2.4216-1.6591,2.2388-1.6381,5.897.8159,7.2412,4.1498,1.7496,9.4739-1.0782,13.8277-1.7885,19.618-5.3175,36.8376-21.6455,33.2095-41.6111-.7196-4.2853-.4439-8.4816,1.6443-12.6396,1.5906-2.9328,2.7108-5.1478,4.6608-6.8896,1.6117-1.1454,3.2936.909,5.3457.5363,1.7797-.3415,2.6554-1.6389,3.5679-3.4092,13.4258-26.3078-14.3899-57.8339-42.5254-46.4391-1.8213,2.2805,1.6439,3.8228,4.3659,4.1033,3.5777.4518,6.9464-1.9918,10.4061-2.1985,1.7984-.0769,3.5452.6408,5.1671,1.4994,3.6625,2.0066,9.1934,5.1326,12.6547,7.4203,10.3327,6.4039-1.2492,12.1919-2.4238,19.8049-.8044,4.5039-1.2972,9.595-3.2244,13.8733-3.7057,9.0828-11.0976.4339-20.8097-3.4383-3.0783-1.0686-6.3917-2.5153-7.9437-1.4121-.0394,1.535,2.2838,2.8257,2.9973,4.264.898,1.4628.0778,2.6466.4271,4.6762,1.1697,4.4923.9123,6.2821-4.4732,5.2919-6.8416-1.3453-13.6345-4.0316-18.9594-8.3573-1.2015-1.2506-1.3961-2.5353-1.7015-3.7215-.402-2.4389-2.4312-3.8221-4.6272-5.0409-45.8094-26.9291-12.594-110.2044,37.0664-129.1229,3.9081-1.8171,7.5246-4.423,11.6326-5.9818,12.4874-4.5526,22.3585,1.3225,34.2459,3.4802,9.6316,1.3904,20.8729,1.1327,30.49-1.114,11.6445-3.2993,24.3468-7.5149,35.3303-.0142,2.719,1.7118,5.2751,3.3725,8.2606,4.5725,6.5442,2.564,12.8897,6.2708,18.7037,10.8664,37.0514,30.0073,58.2732,95.2496,13.4012,119.3724-2.5189,2.3991-.774,5.7109-4.0607,7.6794-5.2888,3.5392-16.1464,8.9918-22.6633,7.3179-1.3996-1.0929-.3513-3.2234-.1144-4.7386.59-2.3478-.4608-3.6541.5367-5.2526.7946-1.3647,2.4928-2.4506,3.0103-3.8961-.1424-1.9695-6.4652.4686-8.5557,1.3215-8.735,3.6345-15.9142,11.4913-19.5268,4.2973-3.9494-7.524-2.0336-17.2074-8.2927-23.6053-3.4622-4.2028-2.4714-8.4793,2.1401-11.1174,4.0536-2.5887,9.8963-6.0753,14.1715-8.1634,5.3778-2.7909,10.6623,3.1432,16.1612.9993,6.2404-2.3689.9088-5.3939-2.9311-5.6169-29.1058-4.9197-51.7191,27.2884-35.2954,51.2141.4749.348.9733.5747,1.53.6585,2.05.3687,3.7177-1.6883,5.3415-.5268,3.4375,3.2873,6.6807,9.9165,6.5461,14.9533-6.1963,27.3111,18.9649,46.2347,45.0223,48.238,4.9004-.775,4.2051-7.5053.4458-9.538-10.2751-6.219-27.6309-12.7051-30.8037-24.0483-1.5682-5.2949,1.4096-6.7022,6.1318-5.5684,9.2435,1.7116,20.6166-1.5879,29.7253-6.0618,3.97-2.2682,8.6143-2.7634,12.4742.1073,27.0103,18.5914,30.3443,57.7786,10.4043,82.2578-3.3758,4.3032-7.5564,8.0931-12.8588,9.5421-23.4462,4.4469-25.3144,34.0242-48.9622,42.7343-7.0006,2.7156-22.6465,3.4202-28.9509.0462-1.9564-1.8916,1.4263-5.3317,2.6178-7.2218,2.017-2.8892,3.6469-5.2996,5.8899-9.2969,47.5725-78.6592-101.3414-87.3942-68.2384-8.3102,2.6559,5.9803,6.5557,12.5517,10.0171,17.3041,1.1584,1.9058,3.7227,4.3154,3.5332,6.4179-.2947,1.854-2.7901,2.2977-4.5683,2.6176-15.8678,2.1101-34.4786-1.5239-45.2489-14.5431l-.1206-.1749ZM935.4123,734.4406c2.9681-.222,7.2869-1.1462,10.6537-1.2504,5.8654-.1189,8.2938,2.8432,1.8635,4.2669-10.6271,2.6176-22.3734,2.7007-33.3573-.1573-.8215-.2725-1.4653-.397-1.2357-.7148.3205-.2922,2.5369-.4588,5.367-.706,5.1665-.4557,11.9177-1.0476,16.5389-1.4223l.1699-.0161ZM915.0306,750.4415c.7302-.3662,2.8974-.0788,4.1421-.0227,13.7625,1.0996,27.2206-1.0011,39.2538-5.7184,1.8604-.7038,3.8384-1.293,5.7945-1.2895,1.9561-.0268,3.9396.5386,5.8082,1.2203,12.3726,4.7732,26.515,6.5,40.4686,5.2217,2.8119-.1366,2.1673.5832-.2094,1.7774-43.5406,21.7716-42.209,28.3636-86.6681,3.8015-2.7142-1.4046-4.842-2.4809-6.7532-3.4759-1.3047-.691-2.1187-1.2352-1.8652-1.4877l.0288-.0267ZM948.3908,952.991c-1.36-1.6018-2.1736-4.0691-2.9165-6.1823-7.7344-22.0816-37.8527-29.5474-56.7234-13.9448-1.5328,1.2028-3.6909,3.5407-3.0462,5.1813,7.3054,8.1004,31.7578-3.9483,41.0066,12.7601,2.4347,3.8509,1.2827,7.6032-2.3663,9.9821-5.9628,4.3267-10.6246,10.8914-13.0671,18.1856-1.2819,4.6788-4.6572,7.5338-9.6368,7.8059-21.2318,1.8968-37.3476-5.4741-48.2898-17.9017-30.1352-36.3305-20.47-99.7942,16.4835-128.0117,21.9999-17.2231,55.9928-29.7039,84.0167-43.3447,4.856-2.2731,8.3665-5.0009,13.1159-2.7092,22.6642,11.4818,60.5,26.3291,81.3583,39.9207,39.79,24.864,52.0265,70.974,40.0083,106.8116-6.6807,21.6027-20.3448,38.8997-35.8125,44.9455-10.8279,4.4497-24.2349,2.5984-34.0201-7.0368-3.8577-4.1882-5.9512-10.6911-10.1904-14.8686-5.2949-5.5886-12.1065-7.4889-5.5046-15.6414,8.8834-10.5354,22.7782-5.1238,35.3733-7.7891,7.5925-1.6329,2.4218-6.5691-2.055-9.4432-10.0097-6.6763-22.8314-8.383-34.0682-4.1512-21.9671,8.5532-17.6009,32.2824-40.309,29.6638-4.6003-.6911-10.0187-.6283-13.2504-4.1061l-.1063-.1257ZM963.7359,990.7353c.39,3.7238.4526,7.8131.0633,11.4844-.4373-3.6266-.4219-7.8066-.079-11.4843h.0157Z"/>
      <path class="d" d="M1428.2094,607.9075c1.4753-.0041,3.3193-.997,4.6104-2.1111,14.1203-11.179,34.4315-31.0222,51.6727-30.7513,3.7467.069,7.4191,1.1424,11.1822.2454,4.6029-.9325,8.4225-4.8832,12.7499-6.3738,11.0254-2.8106,25.3513,2.9294,36.9612,5.5483,7.5164,1.1976,12.3834,9.0036,20.1531,9.0019,4.1544.1412,9.3469-2.4846,4.8373-6.3451-85.2687-62.0551-211.5267,29.5588-182.9258,129.823,1.2353,1.7879,2.158-4.9759,2.9463-5.6133,1.0033-1.8305,2.7756.7004,3.7653-.1657.5006-.5648.5395-1.3135.782-2.0367.4082-1.4829,1.1316-2.871,2.2712-4.0707,2.4881-2.4818,6.1157-4.6212,5.9035-8.5143.1331-7.8202-4.0073-20.4369-5.7217-29.1656-1.4846-6.9104,7.0824-1.2079,7.8012-5.0963.1673-3.2438-1.8447-8.277-1.1163-11.9104.4034-2.2299,2.5409-3.3244,4.4947-4.0456,6.2246-1.6395,5.0821-6.9715,5.8722-12.1355.6379-6.6149,3.838-4.205,8.0047-6.7233,3.22-2.3204.461-9.7997,5.64-9.5498l.1159-.01Z"/>
      <path class="d" d="M1628.1596,912.9446c-4.6014.9728-12.4773,1.9731-16.1084,3.2299-2.5081,1.195,1.3663,2.5044,3.679,3.4473,27.9981,10.7102,63.7502-15.7712,52.9723-45.6782-5.466-13.593-21.0907-23.0902-35.0661-26.6297-4.3511-1.044-8.7224-1.4746-12.7355-1.1103-1.1648.1115-2.6697.3095-3.4934,1.0275-.6351.6128-.1829,1.487,1.1139,2.4873,23.0334,13.9697,52.6548,26.0048,28.3426,50.7073-2.1371,2.3193-1.7059,2.4539.7793,1.4854,3.3697-1.2202,14.0406-6.8911,7.076.9731-6.1024,6.8832-17.0951,8.3078-26.3753,10.027l-.1845.0333Z"/>
      <path class="d" d="M1674.4075,514.92c-.3173,1.7368-5.4285,4.8846-2.9645,4.9558,41.597-6.5584,39.1947-64.413-4.8739-73.235-2.4316-.5505-4.9604-1.0508-7.2964-1.5723-2.6975-.6027-4.9262-.9931-6.4192.0681-3.7319,2.9813-.652,8.2105,3.2971,10.0407,28.0159,14.2371,39.9763,25.1701,20.4541,51.6584-2.0573,2.7128-1.3112,5.0733-2.142,7.9503l-.0552.1341Z"/>
      <path class="d" d="M1745.5721,770.5794c.5221-1.3865-.4739-3.0477-2.1096-3.906-3.6382-1.8149-8.3069-.1914-11.9358-2.1826-4.8131-2.3603-8.5886-6.9069-12.9808-9.9524-9.0426-6.3105-21.6245-11.2923-32.9436-14.8716-2.1293-.5033-4.7776-.2642-7.3477.2518-4.2931.9364-11.4822,2.1497-15.4261,3.3413-.922.5276,4.2786.5558,5.0563.6529,104.926,4.8077,64.1517,113.0261,29.5966,62.3347-1.8574-2.6718-4.3243-7.8831-7.6075-4.8096-.4399.4296-.6095.4646-.4646-.2773.4435-2.5097,3.3338-9.0435,1.6862-12.5914-.812-2.1664-3.2813-4.1877-5.5864-3.6841-6.8734,3.4221,1.1982,28.7399,4.5607,33.2293,1.9652,3.071,4.8238,4.0487,8.6797,4.4273,28.7781,2.216,46.6256-9.7683,42.1924-38.3612-.3023-2.4931-.7928-5.0438-.0464-7.4065.9382-2.9703,3.8619-4.1984,4.6344-6.0807l.0422-.1139Z"/>
      <path class="d" d="M1338.981,865.3719c-.3762-.1528-1.3427.2387-2.6554.9121-19.6337,12.2455-33.1818-12.3126-45.3489-26.8822-2.1848-2.7777-5.7655-2.7908-8.4527-.4281-3.3753,3.0668.2951,5.6284,2.693,8.2161,11.761,14.223,40.0109,38.2373,53.1954,20.1227.6998-1.0133.9567-1.7379.6174-1.9179l-.0487-.0227Z"/>
      <path class="d" d="M1432.7387,167.0349c.3741-.1442.5253-.7516.4669-1.717-.1634-2.0924-.8588-4.4546-1.3243-6.5691-2.0827-8.9502-2.5337-12.109,2.1176-19.3104,2.1579-3.0375,4.2342-7.2018,7.9546-8.3376,2.5796-.6812,5.0251.3112,7.5181.9573,3.826,1.1634,7.3778,1.4676,10.726.9173,1.4602-.2043,5.7631-1.0941,2.6724-2.5713-1.8139-.9223-6.0795-1.7704-7.0083-2.4653-1.7496-1.4315,7.7438-2.0493,8.4791-3.1358.0754-.0826.099-.1656.071-.2495-.1239-.5713-2.8105-1.0298-4.9665-1.9286-.5437-.2422-1.1327-.4684-1.6164-.7566-.3298-.1844-.6043-.3661-.8095-.5394-.3537-.3408-.6286-.6283-.2781-1.0007,2.9719-1.386,6.1732-.2577,10.7188-.1417,2.9815.2636,6.4456.3496,9.1883,1.0381,1.8918.5175,3.383,1.7368,4.9569,2.8843,2.3685,1.8016,6.0917,4.3114,8.9159,6.1801,4.4038,2.954,9.2611,5.846,9.3126,11.3084.1931,2.4132.9046,4.7767,2.0547,6.9972,1.0129,2.4061,7.9503,14.543,4.359,11.0597-7.1792-7.2492-12.5123-18.6927-23.6164-20.2138-3.4371.0257.0755,3.4467,1.3247,4.7163,8.1337,8.1658,14.191,15.3123,19.3812,25.1249,19.0316,34.6294-13.2483,54.7782-31.0765,75.7195-3.0173,3.8734-5.1369,7.7193-5.8263,11.7191-.6634,4.4087-3.4394,8.0721-6.6751,11.2303-34.6651,34.4271-63.2972,3.648-71.1864,13.4614-2.7625,3.5266-.8879,6.3403,2.7377,7.6941,6.1957,2.8784,13.4497,5.0341,21.3714,6.679,9.8134,1.6517,4.3952,2.9108-1.4834,5.2692-1.109.5373-8.1752,2.7482-4.3701,2.467,5.6821-.3669,23.6404-1.9168,31.07-2.2837,1.0379.036,1.3414.2512.579.9411-11.0324,7.6338-27.0376,16.9187-39.4102,21.985-2.2693.969-4.8683,1.0963-7.1565.2477-9.8722-4.4468-8.5436-3.2407-18.3876-.8619-1.9254.3045-3.8559.1364-5.7529-.3078-15.3693-3.8271-41.6564-9.1894-57.5867-12.2312-2.5421-.5706-5.3815-.4077-7.7297-.2322-.4695-.0227.3606-.3312,1.078-1.0382.5126-.504.8557-1.072.6095-1.7046-.6981-1.1557-2.2152-1.5688-3.528-2.1638-2.1774-.861-4.2274-1.8477-5.8352-3.3422-3.2576-2.9646-4.3735-7.4645-7.7258-10.3091-3.489-2.8546-7.6686-5.172-11.423-7.73-2.342-1.4751-4.2391-2.8522-6.4891-3.9616-3.574-1.8014-7.9908-2.3989-12.1424-2.5711-4.6419-.5403-20.3442,2.9828-17.5038,8.8451,1.2776,2.6515,4.9608,5.7365,6.9465,8.3079,1.4942,1.8-1.051,1.1925-2.1276,1.0031-5.9754-1.1013-18.468-4.019-23.1724-4.5135-.2844.0421-.3602.179-.2292.4299.7271,1.2254,2.265,2.0872,3.5523,3.3353,9.1498,7.5143,5.9833,5.8841-2.22,8.9039-.3476.1948-.6128.3983-.6646.7436-.0253.4155.5291.8564,1.455,1.3455,3.88,1.879,8.3995,3.5751,11.497,6.7605,3.2453,3.3878,3.9668,8.138,7.3915,11.1721,6.5309,5.052,15.8758,12.0687,23.66,11.1306,8.6758-1.6341,3.4307-4.8998-1.5213-7.9762-3.3773-2.211-7.0319-4.5713-10.4314-6.7963-4.9652-2.855-4.1571-4.6904-2.2907-8.7401,1.0113-2.2552,2.4125-4.6829,4.4915-5.9715,1.489-.9501,3.2209-1.4711,4.5747-2.637,1.8049-1.2856,2.8459-4.3209,3.7541-1.7343.693,1.8939,1.3371,6.961,2.0144,10.2462.3224,1.6165.8642,3.3832,2.3464,4.203,4.1182,1.5959,6.3584,1.0327,5.0989,6.3302-.4719,2.1843,1.2867,3.5233,3.0902,4.4582,4.293,2.3221,11.7912,6.3052,15.1914,8.0895.5324.2797,1.5323.7878,1.9343.7641.3332-.1511-.141-.705-.3455-1.0501-1.9507-2.5492-4.8064-6.1525-7.3157-9.3006-2.7784-3.6297-2.723-4.6325,2.1633-4.6415,5.9585-.0572,12.0209-1.2712,17.7748-.3093,62.6831,23.3431,134.3979,7.6698,186.2147-32.3044,3.6074-2.2373,7.6205-3.7322,11.5785-6.2675,6.3001-3.9567,13.2782-10.5768,15.4253-17.3005,1.4945-4.6717.4344-9.1984-4.6142-12.5213-2.1336-1.6323-5.4154-2.3323-6.9085-4.5771-.6189-1.1402-.2043-2.4658.2564-3.6191.9355-2.1679,2.5665-5.071,3.5662-6.2855,2.1235-2.4934,2.2325,1.9125,2.7521,3.2701,7.4815,28.2166,33.2617-41.231,39.0066-54.6678,5.6004-14.0995,10.068-26.0403,15.3769-40.3903,10.5126-27.6832,15.362-44.4293,25.7417-66.1017,29.646-86.4318,181.8887-55.9655,140.4239,27.9462-3.4568,6.3846-10.6161,8.2818-16.8537,5.4793-17.2418-6.0169-12.3476-46.777-23.0975-42.9614-6.8085,3.1833-8.8755,12.3871-7.8652,22.7214,1.4152,13.357,8.6504,28.6442,20.761,35.3547,5.2046,2.9488,11.8944,4.1969,18.4104,3.043,91.0105-30.6874,2.627-166.0875-92.882-112.0405-53.6292,32.1881-80.2849,93.4298-101.2074,162.2254-.5258,1.83-1.5844,5.5598-2.1279,6.1453-.9932,1.2232-1.1921-3.6859-1.4307-4.7431-5.5971-44.7519-53.7161-87.391-91.1501-57.6907-2.817,2.3389-5.0383,5.0183-6.8076,7.961-3.5083,5.78-5.8526,12.6818-5.4925,19.3466.2013,4.1855,1.6185,8.4705,4.3013,12.0023.8541.9377,1.918,2.7117,3.1917,2.6727l.0573-.0188Z"/>
      <path class="d" d="M1276.8944,476.7332c-1.4753.0041-3.3193.997-4.6104,2.1111-14.1203,11.1792-34.4317,31.0221-51.6727,30.7515-3.7467-.0689-7.4191-1.1424-11.1822-.2454-4.6029.9325-8.4225,4.8834-12.75,6.3739-11.0254,2.8101-25.3513-2.9298-36.9612-5.5486-7.5164-1.1976-12.3833-9.0036-20.153-9.0019-4.1544-.1412-9.3468,2.4846-4.8372,6.3451,85.2687,62.0552,211.5267-29.5582,182.9257-129.8225-1.2353-1.7879-2.1581,4.9759-2.9464,5.6133-1.0033,1.8304-2.7757-.7006-3.7653.1656-.5006.5648-.5395,1.3136-.782,2.0368-.4082,1.4828-1.1316,2.8709-2.2712,4.0706-2.4882,2.4816-6.1157,4.621-5.9034,8.5142-.1331,7.8204,4.0072,20.4367,5.7216,29.1653,1.4846,6.9105-7.0824,1.208-7.8012,5.0964-.1673,3.2438,1.8447,8.277,1.1163,11.9104-.4034,2.2299-2.5409,3.3245-4.4947,4.0458-6.2245,1.6397-5.0821,6.9716-5.8722,12.1358-.6379,6.615-3.838,4.2048-8.0048,6.7229-3.2201,2.3204-.4609,9.7998-5.6399,9.5498l-.1159.01Z"/>
      <path class="d" d="M1366.1227,219.2692c.3762.1528,1.3427-.2388,2.6554-.9122,19.6336-12.2461,33.1818,12.3122,45.3489,26.8819,2.1848,2.7777,5.7655,2.7908,8.4527.4281,3.3753-3.0668-.295-5.6284-2.693-8.2161-11.7611-14.2232-40.0109-38.2372-53.1954-20.1223-.6998,1.0133-.9567,1.7379-.6174,1.9179l.0487.0227Z"/>
    </g>
  </g>
</svg>