<?xml version="1.0" encoding="UTF-8"?>
<svg id="b" data-name="Шар 2" xmlns="http://www.w3.org/2000/svg" viewBox="0 0 1045.718 467.1873">
  <defs>
    <style>
      .d {
        fill: #ff4fd8;
        stroke: #0f0e0d;
        stroke-miterlimit: 10;
        stroke-width: 1px;
      }
    </style>
  </defs>
  <g id="c" data-name="Шар 1">
    <g>
      <path class="d" d="M107.5991,256.5368c4.2361,2.8584,10.0921,4.2954,17.5678,4.2954,2.243,0,4.9804-.4995,8.2225-1.4937,3.2344-.999,6.2242-2.3691,8.9694-4.1099,2.7374-1.7412,5.104-3.7959,7.0997-6.1704,1.9932-2.3638,2.9898-4.9131,2.9898-7.6582,0-2.7402-1.1846-4.8623-3.5486-6.356-2.3718-1.4932-4.8001-2.2402-7.2878-2.2402-2.7451,0-5.3615.8755-7.8491,2.6162-2.4954,1.7461-5.1091,2.6167-7.8491,2.6167-1.4962,0-3.6155-1.4834-6.353-4.4502-2.7451-2.9663-5.5495-6.438-8.4105-10.3984-2.8661-3.9556-5.3615-7.7871-7.4731-11.5005-2.1219-3.7085-3.1778-6.1855-3.1778-7.4219,0-.4941-.0644-1.3599-.188-2.5957-.1287-1.2363.4326-2.2251,1.6816-2.9717,10.2158-5.4438,20.3053-12.1396,30.2738-20.1069,9.9633-7.9575,18.876-16.9243,26.7226-26.8901,7.8491-9.9658,14.2021-20.6787,19.0615-32.1436,4.8593-11.4595,7.2877-23.5474,7.2877-36.2529,0-2.7402-.9991-4.9189-2.9897-6.541-1.9958-1.6172-4.2388-2.4312-6.7264-2.4312-3.4919,0-6.2319,1.6841-8.2225,5.0474-1.9984,3.3633-3.6155,7.2876-4.8594,11.7739-1.249,4.4858-2.243,8.9663-2.9897,13.4526-.7468,4.4858-1.6224,7.8491-2.6164,10.0947-4.9881,11.4595-10.5943,21.6157-16.8185,30.459-6.2319,8.8486-13.3961,16.2544-21.4899,22.2393-8.0989,5.9795-17.2562,10.5273-27.4694,13.6382-10.2209,3.1211-21.8066,4.6714-34.7598,4.6714-3.2396,0-5.6061-1.2412-7.0997-3.7441,0-.2422.9915-3.9297,2.9897-11.0479,1.9907-7.1123,4.5427-15.9761,7.6612-26.5859,3.1133-10.6099,6.541-22.0332,10.2775-34.2705,3.7366-12.2319,7.2233-23.7173,10.4655-34.4507,3.2344-10.7383,5.9796-19.7261,8.2225-26.9673,2.243-7.2363,3.4868-11.2329,3.7366-11.9849,2.9897-5.7427,6.9144-9.4199,11.7737-11.0425,4.8594-1.6274,9.5874-2.812,14.2021-3.5586,4.607-.7471,8.5959-1.8081,11.9592-3.1831,3.3632-1.3701,5.0447-4.5527,5.0447-9.5537,0-2.9976-1.1846-5.1812-3.5486-6.5513-2.3718-1.375-4.9238-2.0601-7.6637-2.0601-3.9864,0-8.6603.5562-14.0142,1.6787-5.3615,1.123-10.5298,2.7451-15.5103,4.8618-4.9881,2.1172-9.4715,4.8003-13.4553,8.0347-3.989,3.2397-6.7263,6.855-8.2225,10.8364-10.4655,30.1504-20.9928,61.5469-31.582,94.1846-10.5917,32.6431-19.9937,64.0396-28.2162,94.1846-1.746,6.2319-4.298,12.2729-7.6637,18.124-3.3632,5.8608-5.0448,12.0259-5.0448,18.5,0,2.7451.806,5.4854,2.431,8.2251,1.6172,2.7397,4.0456,4.1099,7.2878,4.1099,6.2242,0,10.8389-1.4937,13.8287-4.4858,2.9897-2.9873,5.2302-6.6597,6.7264-11.022,1.4962-4.3569,2.552-9.0952,3.1777-14.2046.618-5.104,1.8026-9.8369,3.5486-14.1992,1.7408-4.3574,4.3572-8.04,7.8492-11.0269,3.4868-2.9927,8.7195-4.4863,15.6982-4.4863,6.2242,0,11.1479,1.437,14.7635,4.3008,3.6078,2.8633,6.5384,6.3501,8.7814,10.4604,2.243,4.1147,4.2336,8.6626,5.9796,13.6431,1.7408,4.9854,3.9246,9.5332,6.541,13.6436,2.6163,4.1099,6.0388,7.6016,10.2775,10.4653Z"/>
      <path class="d" d="M488.6274,186.2707c2.861-10.8364,5.7941-21.2402,8.7839-31.2061,2.9897-9.9658,5.9795-18.8091,8.9692-26.5347,2.9897-7.7202,5.9795-13.3291,8.9694-16.8213,6.9735-7.9727,14.202-14.3901,21.6779-19.2466,7.4757-4.8623,16.5662-7.2881,27.2839-7.2881,5.4774,0,9.2783,2.3076,11.3977,6.9121,2.1143,4.6147,3.1777,9.1572,3.1777,13.6431,0,4.7383-.999,10.6509-2.9897,17.7534-1.9983,7.1025-4.4268,14.7041-7.2877,22.7954-2.8688,8.1016-6.0439,16.4448-9.5306,25.041-3.4919,8.5962-6.6698,16.8828-9.5308,24.8555-2.8688,7.978-5.2971,15.3223-7.2878,22.0542-1.9983,6.7261-2.9897,12.3296-2.9897,16.8154,0,2.7451.6876,5.4854,2.0653,8.2256,1.3802,2.7451,3.1958,5.1709,5.4491,7.2876,2.2559,2.1167,4.7666,3.8008,7.5221,5.042,2.7555,1.2466,5.5186,1.8696,8.274,1.8696,2.5056,0,5.892-.623,10.1565-1.8696,4.262-1.2412,8.3977-2.9253,12.4097-5.042,4.0122-2.1167,7.5222-4.5425,10.53-7.2876,3.0051-2.7402,4.5117-5.6089,4.5117-8.5962,0-4.2334-1.6404-6.6646-4.9109-7.293-3.2705-.6182-6.7959-.9321-10.5686-.9321-2.7734,0-5.6704,1.061-8.6912,3.1777-3.0232,2.1167-5.9153,3.1777-8.6836,3.1777-1.2617,0-2.1425-.8701-2.6445-2.6162-.5022-1.7412-.7546-2.9927-.7546-3.7393,0-3.9814.9426-9.0903,2.8328-15.3223,1.8876-6.2266,4.218-13.082,6.9839-20.5552,2.7683-7.478,5.7246-15.3276,8.8713-23.5474,3.1418-8.2251,6.1033-16.3833,8.8716-24.4795,2.7683-8.0967,5.0911-15.7549,6.9839-22.9863,1.885-7.2256,2.8328-13.6997,2.8328-19.4375,0-12.9478-3.626-21.9194-10.875-26.9053-7.2517-4.9854-16.9988-7.478-29.2438-7.478-6.7521,0-12.9427.8135-18.5645,2.4307-5.6241,1.6226-10.7462,3.6772-15.3712,6.165-4.625,2.4927-8.7529,5.1094-12.3738,7.8491-3.6284,2.7451-6.6877,5.3613-9.1855,7.8491-1.9983-2.4878-3.8138-5.0474-5.4387-7.6587-1.6224-2.6162-3.626-4.9185-5.9977-6.917-2.3768-1.9932-5.3718-3.6719-8.9926-5.0469-3.6206-1.3652-8.5444-2.0552-14.7686-2.0552-6.4817,0-11.9025.5615-16.2571,1.6841-4.3623,1.123-8.1016,2.4312-11.2124,3.9248-3.1184,1.4932-5.9229,2.8018-8.4104,3.9243-2.4929,1.1177-4.9856,1.6792-7.4758,1.6792-2.2404,0-3.5486-.7471-3.922-2.2402-.376-1.4941-.8781-3.1782-1.4962-5.0479-.6257-1.8691-1.6815-3.6104-3.1777-5.2324-1.4937-1.6172-4.2388-2.4258-8.2225-2.4258-2.4928,0-5.359.2471-8.5958.7466-3.2397.4995-6.2938,1.3701-9.1548,2.6167-2.8688,1.2461-5.2971,2.9302-7.2904,5.042-1.9957,2.1221-2.9897,4.6714-2.9897,7.6636,0,2.7451.8705,4.6147,2.6163,5.6035,1.7408.9995,3.6748,1.813,5.7942,2.4312,2.1143.623,4.0457,1.3081,5.7915,2.0552,1.741.7466,2.6165,2.1216,2.6165,4.1147,0,6.7266-1.061,14.5137-3.1753,23.3569-2.1193,8.8481-4.8593,18.124-8.2224,27.8428-3.3633,9.7188-6.9143,19.623-10.6509,29.7124-3.7393,10.0947-7.2904,19.623-10.6536,28.5947-3.3633,8.9668-6.1084,17.1304-8.2225,24.48-2.1194,7.3491-3.1752,13.2671-3.1752,17.7529,0,2.2407.8059,4.5479,2.4283,6.9121,1.6172,2.374,3.6722,3.5537,6.1676,3.5537,5.2327,0,9.8396-4.1719,13.8286-12.5205,3.9812-8.3491,7.8466-18.8145,11.5857-31.397,3.7366-12.5771,7.7205-26.2202,11.9592-40.9243,4.2335-14.6992,9.3427-28.3423,15.3248-40.9248,5.9796-12.5825,13.0149-23.0425,21.1163-31.3965,8.0939-8.3438,17.8744-12.5205,29.3391-12.5205,1.7383,0,3.7366.2524,5.9795.7466,2.2429.5049,4.298,1.1846,6.1676,2.0552,1.8671.8809,3.4198,2.1221,4.6713,3.7393,1.2439,1.6221,1.8671,3.5483,1.8671,5.7939,0,11.7119-1.9957,24.7319-5.9796,39.0552-3.9889,14.3335-8.408,28.3477-13.2672,42.0474-4.8594,13.7051-9.2861,26.3491-13.2673,37.9326-3.9889,11.5884-5.9796,20.7456-5.9796,27.4717,0,3.7393.9915,6.3555,2.9897,7.8491,1.9907,1.4937,4.728,2.2407,8.2227,2.2407,1.9906,0,3.6721-.3711,5.0447-1.1177,1.3674-.7471,2.8019-1.7412,4.2981-2.9927,1.4935-1.4937,3.363-5.5415,5.6061-12.1445,2.243-6.5972,4.6714-14.5137,7.2877-23.7324,2.6165-9.2144,5.3564-19.2471,8.2227-30.0884Z"/>
      <path class="d" d="M837.6152,190.571c2.7683-7.478,5.7246-15.3276,8.8715-23.5474,3.1417-8.2251,6.1031-16.3833,8.8715-24.4795,2.7683-8.0967,5.0912-15.7549,6.9839-22.9863,1.885-7.2256,2.8328-13.6997,2.8328-19.4375,0-12.9478-3.626-21.9194-10.875-26.9053-7.2517-4.9854-16.9988-7.478-29.2437-7.478-6.7522,0-12.9429.8135-18.5645,2.4307-5.6243,1.6226-10.7463,3.6772-15.3713,6.165-4.625,2.4927-8.7529,5.1094-12.3737,7.8491-3.6284,2.7451-6.6877,5.3613-9.1857,7.8491-1.9983-2.4878-3.8138-5.0474-5.4387-7.6587-1.6223-2.6162-3.6259-4.9185-5.9976-6.917-2.377-1.9932-5.3718-3.6719-8.9926-5.0469-3.6207-1.3652-8.5444-2.0552-14.7687-2.0552-6.4817,0-11.9025.5615-16.2571,1.6841-4.3623,1.123-8.1016,2.4312-11.2123,3.9248-3.1185,1.4932-5.923,2.8018-8.4105,3.9243-2.4928,1.1177-4.9856,1.6792-7.4758,1.6792-2.2404,0-3.5486-.7471-3.9219-2.2402-.376-1.4941-.8782-3.1782-1.4962-5.0479-.6259-1.8691-1.6815-3.6104-3.1779-5.2324-1.4935-1.6172-4.2386-2.4258-8.2224-2.4258-2.4928,0-5.359.2471-8.5959.7466-3.2396.4995-6.2937,1.3701-9.1548,2.6167-2.8688,1.2461-5.2971,2.9302-7.2903,5.042-1.9958,2.1221-2.9897,4.6714-2.9897,7.6636,0,2.7451.8704,4.6147,2.6162,5.6035,1.741.9995,3.6748,1.813,5.7942,2.4312,2.1143.623,4.0457,1.3081,5.7916,2.0552,1.7408.7466,2.6163,2.1216,2.6163,4.1147,0,6.7266-1.0609,14.5137-3.1752,23.3569-2.1193,8.8481-4.8593,18.124-8.2225,27.8428-3.3632,9.7188-6.9143,19.623-10.6509,29.7124-3.7393,10.0947-7.2903,19.623-10.6536,28.5947-3.3632,8.9668-6.1083,17.1304-8.2225,24.48-2.1193,7.3491-3.1752,13.2671-3.1752,17.7529,0,2.2407.806,4.5479,2.4285,6.9121,1.6172,2.374,3.6721,3.5537,6.1675,3.5537,5.2327,0,9.8397-4.1719,13.8286-12.5205,3.9813-8.3491,7.8467-18.8145,11.5858-31.397,3.7366-12.5771,7.7203-26.2202,11.9591-40.9243,4.2336-14.6992,9.3428-28.3423,15.325-40.9248,5.9795-12.5825,13.0149-23.0425,21.1163-31.3965,8.0939-8.3438,17.8744-12.5205,29.339-12.5205,1.7383,0,3.7366.2524,5.9795.7466,2.243.5049,4.2981,1.1846,6.1676,2.0552,1.8671.8809,3.4198,2.1221,4.6714,3.7393,1.2438,1.6221,1.8671,3.5483,1.8671,5.7939,0,11.7119-1.9958,24.7319-5.9796,39.0552-3.9889,14.3335-8.408,28.3477-13.2673,42.0474-4.8593,13.7051-9.286,26.3491-13.2672,37.9326-3.989,11.5884-5.9796,20.7456-5.9796,27.4717,0,3.7393.9915,6.3555,2.9897,7.8491,1.9906,1.4937,4.728,2.2407,8.2225,2.2407,1.9907,0,3.6722-.3711,5.0448-1.1177,1.3674-.7471,2.8018-1.7412,4.298-2.9927,1.4937-1.4937,3.3632-5.5415,5.6062-12.1445,2.2429-6.5972,4.6714-14.5137,7.2877-23.7324,2.6163-9.2144,5.3563-19.2471,8.2225-30.0884,2.8611-10.8364,5.7942-21.2402,8.7839-31.2061s5.9795-18.8091,8.9692-26.5347c2.9899-7.7202,5.9796-13.3291,8.9695-16.8213,6.9735-7.9727,14.202-14.3901,21.6777-19.2466,7.4758-4.8623,16.5662-7.2881,27.2839-7.2881,5.4775,0,9.2784,2.3076,11.3978,6.9121,2.1141,4.6147,3.1777,9.1572,3.1777,13.6431,0,4.7383-.9991,10.6509-2.9897,17.7534-1.9984,7.1025-4.4268,14.7041-7.2877,22.7954-2.8688,8.1016-6.0439,16.4448-9.5308,25.041-3.4919,8.5962-6.6697,16.8828-9.5308,24.8555-2.8687,7.978-5.2971,15.3223-7.2877,22.0542-1.9984,6.7261-2.9899,12.3296-2.9899,16.8154,0,2.7451.6876,5.4854,2.0654,8.2256,1.3802,2.7451,3.1958,5.1709,5.449,7.2876,2.2559,2.1167,4.7666,3.8008,7.5222,5.042,2.7554,1.2466,5.5186,1.8696,8.2739,1.8696,2.5056,0,5.8921-.623,10.1565-1.8696,4.262-1.2412,8.3977-2.9253,12.4098-5.042s7.5221-4.5425,10.5299-7.2876c3.0052-2.7402,4.5117-5.6089,4.5117-8.5962,0-4.2334-1.6404-6.6646-4.9109-7.293-3.2705-.6182-6.7959-.9321-10.5685-.9321-2.7736,0-5.6705,1.061-8.6913,3.1777-3.0232,2.1167-5.9152,3.1777-8.6835,3.1777-1.2618,0-2.1425-.8701-2.6447-2.6162-.5022-1.7412-.7546-2.9927-.7546-3.7393,0-3.9814.9426-9.0903,2.8328-15.3223,1.8877-6.2266,4.2181-13.082,6.9839-20.5552Z"/>
      <path class="d" d="M246.2256,381.6369c3.7391-11.959,7.9083-24.5415,12.5205-37.7471,4.6096-13.2056,9.0929-26.1021,13.4553-38.6841,4.3572-12.5771,8.3461-24.3511,11.9591-35.3213,2.66-8.0747,4.8113-15.1973,6.46-21.3823,10.6765-6.252,20.0679-14.4546,28.1431-24.6699,8.467-10.708,15.196-23.043,20.1841-37.0005,4.9805-13.9521,7.4733-28.4038,7.4733-43.3555,0-10.2134-.8112-20.1172-2.4283-29.7124-1.625-9.5898-4.7358-18.0625-9.3455-25.4121-4.6121-7.3491-10.9006-13.2725-18.8734-17.7529-7.9752-4.4858-18.3121-6.7314-31.0206-6.7314-14.4519,0-27.9071,3.5537-40.3632,10.6558-12.4639,7.0972-23.3028,16.3218-32.5168,27.6577-9.2217,11.3408-16.4451,24.2891-21.6778,38.8696-5.2328,14.5757-7.8492,29.3364-7.8492,44.2876,0,22.6719,5.7942,40.6157,17.3799,53.8164,11.5858,13.2104,29.2102,19.8081,52.8865,19.8081,4.835,0,9.5579-.4434,14.1688-1.3281-1.3805,4.4243-2.6896,8.6362-3.9225,12.626-1.625,5.2329-2.6809,8.5962-3.1779,10.0894-.9991,2.7451-2.0551,5.5469-3.1752,8.4106-1.1228,2.8687-3.4302,4.2954-6.9143,4.2954-2.243,0-4.4268-.8032-6.541-2.4258-2.1194-1.6172-4.8001-3.3633-8.0371-5.2329-3.2396-1.8696-7.2878-3.6104-12.1445-5.2324-4.8594-1.6172-11.1556-2.4312-18.876-2.4312-14.7043,0-28.4686,2.9922-41.2981,8.9717-12.8347,5.98-24.1063,14.2666-33.825,24.856-9.7161,10.5889-17.3773,23.1714-22.9835,37.7466-5.6061,14.5757-8.4105,30.3359-8.4105,47.2803,0,9.4717,1.3674,18.3765,4.1125,26.7202,2.7374,8.3486,6.7264,15.6416,11.9591,21.8633,5.2328,6.2319,11.7094,11.1558,19.4349,14.7661,7.7204,3.605,16.5661,5.418,26.5346,5.418,3.4868,0,7.7848-.8755,12.8939-2.6162,5.104-1.7407,10.2801-3.6104,15.5129-5.6089,5.2302-1.9878,10.0895-3.7339,14.5755-5.2329,4.4833-1.4932,7.9702-1.9878,10.4629-1.4932.7494.252,1.4962,1.1846,2.243,2.8018.7494,1.6274,1.8696,3.4302,3.3632,5.4233,1.4962,1.9932,3.6104,3.8008,6.3555,5.418,2.7374,1.6172,6.353,2.4312,10.8389,2.4312,2.7374,0,5.8508-.5615,9.3427-1.6846,3.4868-1.1226,6.7856-2.6729,9.9041-4.6709,3.1134-1.9932,5.7299-4.3574,7.8492-7.1025,2.1141-2.7402,3.175-5.7271,3.175-8.9668,0-2.4927-.9966-4.4243-2.9897-5.7939-1.9957-1.3701-4.11-2.0552-6.353-2.0552-1.4935,0-3.551.6851-6.1675,2.0552-2.6163,1.3696-5.1735,2.4927-7.6611,3.3628-2.4927.876-4.6714,1.1851-6.541.9326-1.867-.2422-2.8018-1.9883-2.8018-5.2329,0-5.7271,1.1794-13.4526,3.5511-23.1714,2.364-9.7188,5.4182-20.5552,9.1547-32.5142ZM234.1098,233.175c-5.6062-2.7349-10.2775-6.3506-14.0142-10.8364-3.7366-4.4858-6.6697-9.4048-8.7839-14.7661-2.1194-5.3516-3.1752-10.6509-3.1752-15.8838,0-13.2002,1.8026-26.0967,5.4182-38.6792,3.6104-12.582,8.8406-23.8564,15.6982-33.8276,6.85-9.9604,15.1369-17.9385,24.853-23.918,9.7186-5.9795,20.6786-9.0903,32.8901-9.3428,5.9796,0,11.2716,1.4937,15.8837,4.4858,4.6069,2.9873,8.5959,6.855,11.9592,11.5835,3.3657,4.7383,5.9177,9.9707,7.6636,15.6982,1.7383,5.7373,2.6165,11.2119,2.6165,16.4448,0,9.9712-1.4961,20.9312-4.486,32.8901s-7.4757,23.1714-13.4553,33.6367c-2.2238,3.8921-4.6561,7.5415-7.2936,10.9517-.3752-2.2104-1.4359-4.1519-3.2031-5.8237-2.2405-2.1113-4.8567-3.1777-7.8466-3.1777-1.746,0-4.3624.0669-7.8491.1904-3.4919.1289-6.9144.5566-10.2775,1.3086-3.3658.7466-6.2964,1.8643-8.7839,3.3628-2.4929,1.4937-3.7366,3.4922-3.7366,5.9795,0,2.2407.8704,3.9248,2.6163,5.0425,1.7382,1.1226,3.7366,2.1836,5.9796,3.1777,2.2429.999,4.2335,1.998,5.9795,2.9922,1.7407.999,2.6165,2.4927,2.6165,4.4863,0,.3311-.3362,1.6411-.9944,3.8901-6.4033,2.8291-13.4104,4.249-21.0258,4.249-7.2311,0-13.6432-1.3696-19.2494-4.1147ZM224.7358,385.4069c-3.1185,7.875-5.6705,14.4263-7.6611,19.6689-4.7358,11.9956-11.8381,21.9253-21.3044,29.7896-9.4715,7.8701-19.8083,11.9287-31.0206,12.1758-7.9779,0-14.9489-1.3081-20.9285-3.9297s-10.9677-6.2422-14.9515-10.8672c-3.989-4.6201-6.9144-10.1772-8.7814-16.6719-1.8696-6.4946-2.8043-13.6123-2.8043-21.3584,0-9.7393,1.9906-20.2358,5.9796-31.4736,3.9838-11.2383,9.5307-21.7295,16.6331-31.4741,7.0997-9.7393,15.5103-17.9131,25.2264-24.5361,9.7187-6.6235,20.4288-10.1772,32.1433-10.6821,2.9898,0,7.0998.438,12.3325,1.3135,5.2328.8755,10.4655,2.3125,15.6983,4.311,5.2327,1.998,9.7161,4.4341,13.4553,7.3032,3.7366,2.874,5.6061,6.3091,5.6061,10.3057,0,4.4961-1.0635,10.5581-3.1777,18.1704-2.1194,7.6177-4.6121,15.5439-7.4758,23.7896-2.8661,8.2456-5.8559,16.3008-8.9693,24.1655Z"/>
      <path class="d" d="M449.1701,279.2326c-1.9983,0-3.6155.5562-4.8594,1.6787-1.2489,1.123-2.3716,2.3691-3.363,3.7393-.9993,1.3701-2.0551,2.7451-3.1779,4.1099-1.1202,1.3701-2.5571,2.3076-4.298,2.8018-4.4834-.9941-8.3513-2.3022-11.5857-3.9243-3.2395-1.6172-6.4817-3.1777-9.7161-4.6714-3.2422-1.4937-6.729-2.8018-10.4656-3.9248-3.7366-1.1177-8.2225-1.6792-13.4553-1.6792-15.451,0-29.8411,3.2964-43.1677,9.8838-13.3315,6.5874-24.853,15.4199-34.5717,26.4829-9.7162,11.0684-17.3799,23.625-22.986,37.6753-5.6062,14.0498-8.408,28.5381-8.408,43.4531,0,12.9277,1.5527,23.8721,4.6713,32.8232,3.1134,8.9565,7.6613,16.167,13.6433,21.6367,5.9796,5.4746,13.3883,9.4512,22.2367,11.9385,8.8406,2.4824,18.9971,3.7236,30.4591,3.7236,2.9899,0,6.3556-.5615,10.0922-1.6787,3.7366-1.123,7.3469-2.4312,10.8389-3.9248,3.4868-1.4985,6.662-2.8018,9.5308-3.9243,2.8611-1.123,4.916-1.6846,6.1675-1.6846,2.7375,0,5.2302.5049,7.4731,1.499,2.243.9941,4.3573,2.1167,6.353,3.3633,1.9932,1.2461,4.1125,2.3691,6.3555,3.3628,2.243.9995,4.7307,1.4937,7.4731,1.4937,2.74,0,6.1033-.6851,10.0923-2.0547,3.9836-1.3647,7.8491-3.2344,11.5857-5.6089,3.739-2.3643,6.9143-5.042,9.5306-8.0347,2.6163-2.9868,3.9247-5.9795,3.9247-8.9668,0-2.7397-.9348-4.7329-2.8044-5.9795-1.8669-1.2461-4.0508-1.8696-6.5383-1.8696-2.9897,0-6.1084.8086-9.3453,2.4258-3.2396,1.6279-6.1649,3.0542-8.7814,4.3008-2.6165,1.2515-4.7358,2.0547-6.3555,2.4307-1.6224.3711-2.3049-.8086-2.0551-3.5537,1.7408-6.9683,3.8602-14.8584,6.3529-23.686,2.4877-8.8228,5.1685-17.9546,8.0371-27.4053,2.8611-9.4404,5.7273-19.0151,8.5959-28.708,2.8611-9.6929,5.6655-18.8296,8.408-27.3999,2.74-8.5752,5.2328-16.2803,7.4758-23.1147,2.2429-6.8296,4.1125-12.3608,5.6061-16.5894.994-2.4873.4327-4.8467-1.6815-7.0869-2.1194-2.2354-4.5503-3.3525-7.2878-3.3525ZM421.3248,331.5549c-1.1202,5.4849-2.7426,12.021-4.8568,19.6226-2.1218,7.6021-4.4268,15.6934-6.9143,24.2891-2.4954,8.6011-4.8594,16.3887-7.1023,23.3623-1.4937,4.4858-2.6808,8.7246-3.5513,12.7056-.8755,3.9917-3.175,7.7256-6.9143,11.2124-7.9753,7.2314-15.76,12.0879-23.3568,14.5757-7.6045,2.4927-16.7618,3.8677-27.472,4.1152-7.9778.2471-14.5162-1.499-19.6202-5.2329-5.1117-3.7393-9.1573-8.4106-12.1471-14.019-2.9897-5.604-5.0474-11.5835-6.1675-17.939-1.1202-6.3501-1.6816-12.0156-1.6816-17.0063,0-10.96,2.4875-21.7964,7.4757-32.5142,4.9803-10.7075,11.5214-20.2407,19.6202-28.5898,8.0938-8.3486,17.3156-15.1367,27.6575-20.3696,10.3367-5.2324,20.9877-7.8491,31.9553-7.8491,3.7366,0,7.4114.4995,11.0244,1.4937,3.6104.999,6.9735,2.4312,10.092,4.3008,3.1134,1.8643,5.8508,4.3623,8.2225,7.4731,2.364,3.1157,3.9246,6.6694,4.6714,10.6509.4969.999.188,4.2388-.9348,9.7188Z"/>
      <path class="d" d="M600.9098,291.5622c1.4961-2.7397,2.2429-5.2329,2.2429-7.4731,0-3.7393-1.5605-6.6646-4.6714-8.7812-3.1184-2.1167-6.4199-3.1777-9.9041-3.1777-7.4758,0-13.3987.4995-17.7533,1.4937-4.3623.999-8.0371,2.0547-11.027,3.1777-2.9897,1.1226-5.6061,2.1167-7.8491,2.9873-2.2404.8755-4.7356,1.3081-7.4731,1.3081-2.2429,0-4.0532-.4326-5.4207-1.3081-1.3726-.8706-2.7427-1.8027-4.1101-2.8018-1.3726-.9941-3.0541-1.9263-5.0447-2.8022-1.9983-.8701-4.8594-1.3081-8.5959-1.3081-4.988,0-9.5951,1.061-13.8286,3.1777-4.2415,2.1172-6.3556,6.0415-6.3556,11.7739,0,2.2402.806,3.9194,2.431,5.042,1.6172,1.123,3.4224,2.0552,5.4181,2.8018,1.9906.752,3.7958,1.6279,5.4208,2.6167,1.6172.999,2.4283,2.4976,2.4283,4.4858,0,3.9917-1.0636,9.7188-3.1777,17.1919-2.1194,7.478-4.8002,15.7651-8.0345,24.8555-3.2422,9.1006-6.6697,18.6289-10.2776,28.5898-3.6155,9.9712-7.0431,19.4375-10.2775,28.4038-3.2422,8.9722-5.923,17.1357-8.0372,24.4849-2.1193,7.3496-3.175,13.02-3.175,17.0015,0,2.7451.7468,5.4233,2.2404,8.0396,1.4962,2.6167,3.4867,4.9189,5.9796,6.9121,2.4875,1.998,5.104,3.5483,7.8491,4.6714,2.74,1.1226,5.4773,1.6841,8.2224,1.6841,2.4877,0,5.8508-.5615,10.0922-1.6841,4.2335-1.123,8.408-2.6733,12.5205-4.6714,4.11-1.9932,7.5968-4.3574,10.4655-7.1025,2.8611-2.7349,4.2981-5.7271,4.2981-8.9668,0-3.2344-1.5605-5.7324-4.6741-7.478-3.1184-1.7412-6.0439-2.6167-8.7812-2.6167-1.9983,0-4.4268.8755-7.2878,2.6167-2.8687,1.7456-5.6061,3.3628-8.2224,4.8618-2.6165,1.4937-4.7358,2.2402-6.3556,2.2402-1.6224,0-2.3048-1.7407-2.0551-5.2329.4971-3.4863,1.8696-9.1572,4.1125-17.0063,2.2405-7.8491,4.9805-16.5635,8.2227-26.1587,3.2344-9.5898,6.7855-19.4941,10.6509-29.7124,3.8601-10.2129,7.5325-19.6226,11.0244-28.2188,3.4867-8.5957,6.6646-15.8218,9.5306-21.6777,2.861-5.8506,4.9186-9.0283,6.1676-9.5332,4.9803-1.9883,11.5212-4.1665,19.6228-6.5356,8.0938-2.3691,16.3782-3.3018,24.853-2.8071,4.2336.5049,7.0997-.6182,8.5959-3.3633Z"/>
      <path class="d" d="M687.428,236.6232c4.6071-4.98,8.7196-9.8423,12.3325-14.5752,3.6104-4.7334,5.4208-8.0967,5.4208-10.0947,0-3.2344-1.3082-5.9126-3.9246-8.0347-2.6165-2.1118-5.4208-3.1777-8.4106-3.1777-.5021,0-3.0541,1.9985-7.6611,5.9849-4.6121,3.9863-9.5308,8.5342-14.7634,13.6382-5.2328,5.1089-10.033,10.0947-14.3875,14.9512-4.3624,4.8569-6.541,8.2871-6.541,10.2749,0,3.4971,1.6172,5.9849,4.8594,7.4785,3.2344,1.4937,6.353,2.2402,9.3428,2.2402,1.9905,0,5.2893-1.8691,9.9041-5.6035,4.6069-3.7393,9.214-8.0962,13.8287-13.082Z"/>
      <path class="d" d="M649.4931,277.7336c-1.9983,0-3.989.376-5.9795,1.123-1.9984.7466-3.989,1.1226-5.9796,1.1226-2.243,0-4.8027.062-7.6637.1855-2.8662.1284-5.547.561-8.0347,1.3081-2.4927.7466-4.5503,1.998-6.1675,3.7393-1.6223,1.7456-2.4285,4.2383-2.4285,7.4731,0,2.9868,1.0559,5.0474,3.1753,6.1646,2.1143,1.123,4.486,1.9365,7.1023,2.4312,2.6165.4995,5.0448,1.061,7.2878,1.6841,2.2429.6235,3.363,2.0552,3.363,4.2954,0,2.4927-1.0609,7.0405-3.175,13.6436-2.1221,6.6025-4.7358,14.2661-7.8491,22.9858-3.1187,8.7246-6.541,18.0674-10.2776,28.0283-3.7393,9.9712-7.1667,19.499-10.2802,28.5894-3.1158,9.1011-5.7323,17.4443-7.8466,25.041-2.1219,7.6074-3.1777,13.2725-3.1777,17.0068,0,3.4917.806,6.4839,2.4285,8.9717,1.6196,2.4927,3.739,4.6147,6.3555,6.3506,2.6163,1.751,5.5417,2.9922,8.7812,3.7388,3.2371.7471,6.3556,1.123,9.3455,1.123h9.5306c3.6078,0,7.0354-.376,10.2775-1.123,3.2345-.7466,5.9797-1.9878,8.2227-3.7388,2.2429-1.7358,3.3632-4.3521,3.3632-7.8442,0-3.4868-1.6815-6.3555-5.0448-8.5957-3.3657-2.2456-6.6697-3.3687-9.9041-3.3687-1.4962,0-3.2422.1909-5.2328.5615-1.9984.376-3.8679.5615-5.6062.5615-1.746,0-3.1185-.3091-4.1125-.9321-.9991-.6182-1.3726-2.0552-1.1202-4.3008,0-3.7339,1.1202-9.5283,3.3633-17.3774,2.2429-7.8491,4.916-16.6919,8.0344-26.5347,3.1135-9.8418,6.541-20.1221,10.2802-30.835,3.7367-10.7129,7.1591-20.7456,10.2775-30.0884,3.1108-9.3428,5.7273-17.501,7.8492-24.4795,2.1117-6.9736,3.1752-11.7065,3.1752-14.1997,0-3.4868-1.1846-6.479-3.5511-8.9717-2.3693-2.4878-5.2946-3.7393-8.7814-3.7393Z"/>
      <path class="d" d="M849.0666,439.1921c-1.9956-1.7407-4.6121-2.6167-7.8491-2.6167-2.9897,0-6.1083.814-9.3427,2.4312-3.2422,1.6226-6.0439,2.8687-8.4105,3.7393-2.3691.8755-4.0508.9321-5.0448.1855-.9991-.7471-.8756-3.4868.3734-8.2251.4971-1.2412,1.6172-4.4189,3.3632-9.5283,1.7408-5.104,3.7391-11.2124,5.9822-18.3145,2.2404-7.1025,4.6713-14.6992,7.2877-22.7959,2.6165-8.0962,5.0448-15.5693,7.2878-22.4243,2.2429-6.855,4.0455-12.644,5.4181-17.3823,1.3674-4.7285,2.0551-7.3447,2.0551-7.8496,0-8.7192-.8756-16.8774-2.6139-24.4795-1.746-7.5967-4.6146-14.1377-8.5985-19.6226-3.9863-5.4751-9.4071-9.7754-16.2571-12.8916-6.8551-3.1157-15.2656-4.6714-25.2264-4.6714-7.7281,0-15.8862,1.3701-24.4822,4.1104-8.5959,2.7451-16.3859,5.4849-23.3595,8.2197-1.9956,0-3.6129-.6797-4.8567-2.0552-1.2515-1.3647-2.6165-2.6729-4.1125-3.9243-2.2429-2.9873-5.0448-5.0425-8.408-6.165-3.3633-1.123-6.7933-1.6841-10.2776-1.6841-4.4858,0-9.1006,1.3081-13.8286,3.9243-4.7383,2.6167-7.1023,6.541-7.1023,11.7739,0,2.4927.9939,4.1768,2.9897,5.0474,1.9905.8755,4.1125,1.6787,6.3529,2.4307,2.243.7471,4.3572,1.6226,6.3556,2.6167,1.9905.9937,2.9897,2.8633,2.9897,5.6035,0,3.2397-1.1873,8.7812-3.5513,16.6304-2.3716,7.8491-5.2971,16.7593-8.7838,26.7251-3.4919,9.9663-7.2877,20.4316-11.3978,31.3916-4.1125,10.9702-7.9135,21.3687-11.4001,31.2109-3.4919,9.8423-6.4175,18.6289-8.7815,26.3491-2.3717,7.7256-3.551,13.082-3.551,16.0693,0,3.4922.6824,6.2319,2.0549,8.2251,1.3674,1.9932,4.0481,2.9873,8.0345,2.9873,3.7391,0,6.7289-1.4888,8.9718-4.4707,2.2405-2.9873,4.0457-6.4688,5.4182-10.4448,1.3674-3.9761,2.4285-8.0757,3.1777-12.3042.7468-4.2285,1.6173-7.7051,2.6165-10.4448,5.4774-14.9155,10.7745-29.9546,15.8837-45.1172,5.104-15.168,10.0253-30.3354,14.7635-45.498,2.2404-6.9634,5.8508-13.0562,10.8363-18.2734,4.983-5.2227,10.7101-9.4512,17.1945-12.6855,6.4766-3.229,13.3909-5.6499,20.743-7.2725,7.3444-1.6118,14.3876-2.4204,21.1165-2.4204,3.7366,0,7.0353.9321,9.9042,2.7964,2.861,1.8696,5.3538,4.2285,7.4731,7.0923,2.1143,2.8584,3.6748,6.0259,4.6738,9.5024.9915,3.4814,1.4937,6.8398,1.4937,10.0688,0,10.4448-1.6223,21.0703-4.8594,31.8857-3.2395,10.8159-6.7263,21.4463-10.4629,31.8862-3.7393,10.4395-7.2312,20.3848-10.4656,29.8359-3.2422,9.4453-4.8594,18.021-4.8594,25.731,0,3.7236.8062,6.8296,2.4285,9.3169,1.6198,2.4878,3.7391,4.481,6.3555,5.9692,2.6165,1.4937,5.5417,2.6113,8.7814,3.3579,3.2369.7417,6.3556,1.1177,9.3453,1.1177,1.9906,0,4.6069-.4995,7.8491-1.4985,3.2344-.9888,6.474-2.2969,9.7162-3.9248,3.2344-1.6172,5.9796-3.4868,8.2225-5.6035s3.3632-4.3003,3.3632-6.541c0-2.9922-.9991-5.3564-2.9899-7.1021Z"/>
      <path class="d" d="M1042.8512,282.5851c-2.1194-2.2354-4.5503-3.3525-7.2878-3.3525-1.9983,0-3.6155.5562-4.8593,1.6787-1.2489,1.123-2.3717,2.3691-3.3632,3.7393-.9993,1.3701-2.0551,2.7451-3.1777,4.1099-1.1202,1.3701-2.5571,2.3076-4.2981,2.8018-4.4834-.9941-8.3513-2.3022-11.5857-3.9243-3.2395-1.6172-6.4817-3.1777-9.7161-4.6714-3.2422-1.4937-6.729-2.8018-10.4656-3.9248-3.7366-1.1177-8.2225-1.6792-13.4553-1.6792-15.4509,0-29.8411,3.2964-43.1676,9.8838-13.3317,6.5874-24.853,15.4199-34.5718,26.4829-9.7162,11.0684-17.3799,23.625-22.986,37.6753-5.6062,14.0498-8.408,28.5381-8.408,43.4531,0,12.9277,1.5527,23.8721,4.6714,32.8232,3.1133,8.9565,7.6611,16.167,13.6433,21.6367,5.9795,5.4746,13.3882,9.4512,22.2366,11.9385,8.8406,2.4824,18.9971,3.7236,30.4592,3.7236,2.9897,0,6.3555-.5615,10.092-1.6787,3.7366-1.123,7.3469-2.4312,10.8389-3.9248,3.4868-1.4985,6.6621-2.8018,9.5308-3.9243,2.8611-1.123,4.916-1.6846,6.1676-1.6846,2.7374,0,5.2301.5049,7.4731,1.499s4.3572,2.1167,6.3529,3.3633c1.9932,1.2461,4.1125,2.3691,6.3556,3.3628,2.243.9995,4.7306,1.4937,7.4731,1.4937,2.74,0,6.1031-.6851,10.0922-2.0547,3.9838-1.3647,7.8491-3.2344,11.5857-5.6089,3.7391-2.3643,6.9143-5.042,9.5308-8.0347,2.6163-2.9868,3.9246-5.9795,3.9246-8.9668,0-2.7397-.9348-4.7329-2.8044-5.9795-1.8669-1.2461-4.0508-1.8696-6.5383-1.8696-2.9897,0-6.1084.8086-9.3453,2.4258-3.2396,1.6279-6.1649,3.0542-8.7814,4.3008-2.6163,1.2515-4.7357,2.0547-6.3555,2.4307-1.6223.3711-2.3048-.8086-2.0549-3.5537,1.7407-6.9683,3.8601-14.8584,6.3528-23.686,2.4878-8.8228,5.1685-17.9546,8.0372-27.4053,2.861-9.4404,5.7272-19.0151,8.5959-28.708,2.861-9.6929,5.6654-18.8296,8.4078-27.3999,2.74-8.5752,5.2329-16.2803,7.4758-23.1147,2.2429-6.8296,4.1125-12.3608,5.6062-16.5894.9939-2.4873.4326-4.8467-1.6816-7.0869ZM1007.7182,331.5549c-1.1204,5.4849-2.7427,12.021-4.8569,19.6226-2.1218,7.6021-4.4266,15.6934-6.9143,24.2891-2.4954,8.6011-4.8594,16.3887-7.1023,23.3623-1.4937,4.4858-2.6808,8.7246-3.5511,12.7056-.8756,3.9917-3.1752,7.7256-6.9144,11.2124-7.9753,7.2314-15.76,12.0879-23.3568,14.5757-7.6045,2.4927-16.7618,3.8677-27.472,4.1152-7.9778.2471-14.5161-1.499-19.6201-5.2329-5.1118-3.7393-9.1575-8.4106-12.1472-14.019-2.9897-5.604-5.0474-11.5835-6.1675-17.939-1.1202-6.3501-1.6816-12.0156-1.6816-17.0063,0-10.96,2.4877-21.7964,7.4758-32.5142,4.9803-10.7075,11.5212-20.2407,19.6201-28.5898,8.0939-8.3486,17.3156-15.1367,27.6575-20.3696,10.3368-5.2324,20.9877-7.8491,31.9553-7.8491,3.7366,0,7.4114.4995,11.0244,1.4937,3.6104.999,6.9735,2.4312,10.092,4.3008,3.1134,1.8643,5.8508,4.3623,8.2227,7.4731,2.364,3.1157,3.9246,6.6694,4.6713,10.6509.4969.999.188,4.2388-.9347,9.7188Z"/>
    </g>
  </g>
</svg>